<?xml version="1.0" standalone="no"?>
<!DOCTYPE svg PUBLIC "-//W3C//DTD SVG 20010904//EN"
 "http://www.w3.org/TR/2001/REC-SVG-20010904/DTD/svg10.dtd">
<svg version="1.0" xmlns="http://www.w3.org/2000/svg"
 width="873.000000pt" height="568.000000pt" viewBox="0 0 873.000000 568.000000"
 preserveAspectRatio="xMidYMid meet">

<g transform="translate(0.000000,568.000000) scale(0.100000,-0.100000)"
fill="#000000" stroke="none">
<path d="M4040 5608 c-12 -40 -24 -81 -27 -91 -4 -16 0 -17 34 -11 53 9 76 23
69 41 -3 8 -6 41 -6 74 0 56 -1 59 -25 59 -21 0 -26 -8 -45 -72z m16 -86 c-12
-11 -18 7 -10 30 l8 23 4 -23 c2 -13 1 -26 -2 -30z"/>
<path d="M4902 5627 c-38 -39 -52 -60 -53 -82 0 -26 -2 -27 -9 -10 -11 26 -12
22 -10 -135 1 -90 5 -139 13 -147 16 -15 165 -72 172 -65 5 6 -5 484 -11 491
-2 2 -8 -7 -13 -20 -10 -24 -10 -24 -10 -1 -1 35 -22 26 -79 -31z"/>
<path d="M5543 5608 c4 -71 5 -73 33 -79 l29 -7 -28 -1 -28 -1 3 -102 c3 -99
4 -103 26 -106 13 -2 27 -14 32 -26 5 -13 9 -95 9 -182 1 -139 3 -161 19 -172
20 -15 61 -27 68 -19 3 2 1 175 -3 383 l-8 379 -78 3 -79 3 5 -73z"/>
<path d="M6544 5662 c-13 -11 -24 -36 -28 -63 -4 -24 -17 -96 -29 -159 l-21
-115 -7 55 c-4 30 -7 85 -8 123 -1 37 -4 67 -7 67 -3 0 -24 -14 -46 -31 -37
-30 -40 -31 -53 -13 -10 15 -16 16 -25 7 -10 -9 -9 -17 4 -34 21 -30 20 -79
-1 -198 -20 -112 -30 -96 -32 52 0 48 -4 87 -8 87 -5 0 -27 -17 -50 -38 l-42
-37 -22 -132 c-12 -73 -26 -130 -31 -127 -4 3 -8 45 -8 95 0 71 -3 89 -15 89
-22 0 -28 -56 -21 -215 4 -107 2 -164 -9 -222 -8 -43 -15 -81 -15 -85 0 -8 80
-45 175 -81 57 -21 97 -28 218 -35 215 -13 192 -25 192 93 -1 213 -16 852 -21
893 -5 40 -7 42 -37 42 -18 -1 -42 -9 -53 -18z m-19 -302 c-4 -28 -9 -49 -12
-46 -3 2 -2 28 2 56 4 28 9 49 12 46 3 -2 2 -28 -2 -56z m-180 -218 c-26 -143
-31 -160 -39 -151 -3 3 48 313 54 329 1 3 4 -3 7 -13 2 -10 -7 -84 -22 -165z
m-149 -46 c-4 -31 -12 -59 -18 -62 -6 -4 -8 1 -5 12 3 11 8 41 12 67 4 27 9
46 12 43 3 -3 2 -30 -1 -60z m-28 -158 c-6 -38 -15 -68 -20 -68 -5 0 -7 8 -4
18 3 9 8 29 11 45 13 66 16 79 19 76 2 -2 -1 -34 -6 -71z"/>
<path d="M6737 5553 c3 -71 9 -132 14 -137 12 -14 11 -60 -2 -73 -13 -13 -1
-223 12 -223 12 0 11 -57 -1 -65 -6 -3 -10 -51 -10 -109 0 -80 3 -106 15 -116
17 -14 20 -56 5 -65 -5 -3 -10 -33 -10 -66 l0 -59 32 0 31 0 -7 328 c-3 180
-9 414 -13 520 l-6 192 -32 0 -33 0 5 -127z"/>
<path d="M7420 5671 c0 -5 -20 -12 -45 -15 -58 -9 -58 -26 -1 -26 28 0 46 -5
49 -14 3 -7 9 -224 13 -482 9 -585 5 -529 29 -529 19 0 20 7 20 130 0 72 -5
292 -10 490 -5 198 -8 381 -7 408 2 44 1 47 -23 47 -14 0 -25 -4 -25 -9z"/>
<path d="M4050 5340 c-30 -10 -93 -29 -140 -44 -47 -14 -139 -41 -205 -61 -66
-21 -165 -50 -220 -67 -55 -16 -120 -36 -145 -45 -25 -8 -108 -33 -185 -54
-77 -22 -201 -59 -275 -83 -136 -44 -315 -99 -380 -116 -19 -5 -78 -22 -130
-39 -97 -30 -202 -60 -300 -88 -30 -8 -75 -23 -100 -33 -25 -9 -71 -25 -102
-35 -61 -19 -66 -23 -46 -43 9 -9 9 -12 0 -12 -6 0 -15 8 -21 17 -9 16 -14 16
-83 -6 -63 -21 -70 -25 -48 -32 14 -4 160 -12 325 -18 165 -6 557 -21 871 -33
l572 -22 98 32 c55 18 114 35 133 38 l34 7 -6 -46 c-6 -45 -6 -47 18 -47 21 0
25 5 25 30 0 29 2 30 43 31 23 0 35 3 27 6 -8 3 -26 10 -39 15 -20 7 -21 11
-10 24 11 13 10 17 -4 25 -23 13 -21 29 3 29 11 0 20 7 20 15 0 8 7 15 15 15
18 0 19 12 4 27 -9 9 -6 12 12 11 13 -1 30 -6 37 -11 20 -15 14 7 -8 31 -11
12 -20 25 -20 31 0 5 -6 12 -12 14 -10 4 -10 7 0 15 7 5 10 16 6 25 -6 16 5
22 29 18 10 -2 37 24 37 35 0 5 -5 3 -12 -4 -27 -27 -82 -6 -70 27 8 22 24 32
44 25 9 -3 31 1 50 9 18 8 39 12 46 10 7 -3 10 1 6 10 -3 8 0 18 5 22 6 3 18
21 25 40 18 43 54 66 103 67 75 1 129 -44 162 -133 18 -48 26 -58 54 -65 17
-6 32 -16 33 -24 2 -30 4 -32 19 -20 8 7 13 16 10 20 -8 13 23 20 33 7 17 -21
25 -109 11 -118 -9 -5 -10 -11 -2 -21 6 -7 14 -33 18 -57 4 -24 16 -59 27 -78
26 -43 13 -63 -27 -45 -33 15 -36 15 -29 -2 3 -9 23 -16 47 -18 36 -3 42 -6
45 -28 2 -14 7 -28 10 -32 9 -9 294 -24 887 -48 270 -11 519 -23 555 -26 36
-4 91 -6 123 -5 35 2 57 -2 57 -8 0 -6 -15 -11 -32 -11 -23 -1 -29 -3 -18 -9
8 -5 87 -11 175 -15 88 -3 212 -8 275 -12 83 -4 111 -3 100 5 -8 6 -67 11
-135 12 -66 0 -169 7 -230 14 l-110 14 213 -4 c133 -3 212 -1 212 5 0 6 -5 10
-11 10 -9 0 -191 73 -374 150 -11 5 -54 21 -95 36 -41 15 -86 33 -100 41 -14
7 -31 13 -38 13 -7 0 -47 16 -89 35 -42 19 -82 35 -89 35 -7 0 -25 6 -41 14
-15 8 -64 27 -108 44 -44 16 -120 45 -170 65 -103 39 -118 45 -125 44 -3 -1
-18 6 -35 15 -16 9 -79 35 -140 58 -117 44 -289 115 -317 131 -10 5 -24 9 -31
9 -7 0 -49 15 -93 33 -66 28 -180 73 -414 162 -19 8 -65 25 -102 39 -77 30
-67 30 -138 6z m-180 -330 c0 -5 -2 -10 -4 -10 -3 0 -8 5 -11 10 -3 6 -1 10 4
10 6 0 11 -4 11 -10z"/>
<path d="M4848 5203 c6 -2 12 -17 13 -31 0 -27 0 -27 10 -4 11 28 4 42 -19 41
-11 0 -12 -3 -4 -6z"/>
<path d="M5309 4989 c3 -24 12 -44 19 -47 9 -3 11 3 7 20 -3 13 -7 33 -9 43
-2 10 -7 20 -13 22 -6 2 -7 -13 -4 -38z"/>
<path d="M2470 4990 c0 -5 4 -10 9 -10 6 0 13 5 16 10 3 6 -1 10 -9 10 -9 0
-16 -4 -16 -10z"/>
<path d="M4098 4909 c-10 -10 -18 -21 -18 -24 0 -3 22 -5 50 -5 l49 0 -25 25
c-29 29 -33 30 -56 4z"/>
<path d="M3969 4893 c-11 -30 -4 -73 12 -73 17 0 22 30 9 55 -7 13 -9 28 -6
34 4 6 5 11 1 11 -3 0 -10 -12 -16 -27z"/>
<path d="M125 4890 c-19 -8 -19 -9 2 -9 12 -1 25 4 28 9 7 12 -2 12 -30 0z"/>
<path d="M4226 4891 c-4 -7 -5 -15 -2 -18 9 -9 19 4 14 18 -4 11 -6 11 -12 0z"/>
<path d="M5630 4886 c17 -17 70 -29 70 -16 0 8 -53 30 -74 30 -5 0 -4 -7 4
-14z"/>
<path d="M38 4883 c6 -2 18 -2 25 0 6 3 1 5 -13 5 -14 0 -19 -2 -12 -5z"/>
<path d="M175 4880 c3 -5 16 -10 28 -9 21 0 21 1 2 9 -28 12 -37 12 -30 0z"/>
<path d="M275 4880 c-3 -5 1 -10 9 -10 9 0 16 5 16 10 0 6 -4 10 -9 10 -6 0
-13 -4 -16 -10z"/>
<path d="M400 4879 c0 -12 44 -18 51 -7 4 6 12 7 20 2 8 -5 64 -10 124 -11 61
-1 155 -4 210 -7 76 -3 94 -2 75 6 -14 6 -90 12 -170 13 -80 2 -146 4 -147 5
-7 6 -163 4 -163 -1z"/>
<path d="M2100 4880 c-18 -12 -2 -12 25 0 13 6 15 9 5 9 -8 0 -22 -4 -30 -9z"/>
<path d="M333 4873 c9 -2 25 -2 35 0 9 3 1 5 -18 5 -19 0 -27 -2 -17 -5z"/>
<path d="M935 4860 c-17 -7 -15 -9 13 -9 17 -1 32 4 32 9 0 12 -17 12 -45 0z"/>
<path d="M2025 4860 c-3 -5 -1 -10 4 -10 6 0 11 5 11 10 0 6 -2 10 -4 10 -3 0
-8 -4 -11 -10z"/>
<path d="M994 4853 c11 -12 56 -14 56 -3 0 5 -14 10 -32 10 -17 0 -28 -3 -24
-7z"/>
<path d="M1070 4851 c0 -4 41 -9 91 -10 50 0 95 -3 99 -6 5 -3 11 -1 14 4 4 5
-2 12 -11 14 -33 9 -193 7 -193 -2z"/>
<path d="M1310 4850 c-23 -7 -23 -8 -6 -15 10 -5 26 -4 35 2 11 6 24 5 41 -3
17 -9 28 -10 37 -3 7 6 18 7 25 2 16 -10 168 -13 168 -3 0 15 -257 32 -300 20z"/>
<path d="M88 4843 c6 -2 18 -2 25 0 6 3 1 5 -13 5 -14 0 -19 -2 -12 -5z"/>
<path d="M320 4840 c0 -5 5 -10 10 -10 6 0 10 5 10 10 0 6 -4 10 -10 10 -5 0
-10 -4 -10 -10z"/>
<path d="M380 4840 c0 -6 7 -10 15 -10 8 0 15 2 15 4 0 2 -7 6 -15 10 -8 3
-15 1 -15 -4z"/>
<path d="M4034 4839 c-7 -12 -8 -11 29 -27 22 -9 27 -9 27 2 0 17 -47 39 -56
25z"/>
<path d="M5754 4833 c2 -10 7 -28 11 -40 3 -11 11 -23 18 -26 10 -4 11 5 3 39
-6 25 -16 44 -24 44 -8 0 -11 -7 -8 -17z"/>
<path d="M450 4836 c0 -2 9 -6 20 -9 11 -3 20 -1 20 4 0 5 -9 9 -20 9 -11 0
-20 -2 -20 -4z"/>
<path d="M605 4830 c-3 -5 1 -10 10 -10 9 0 13 5 10 10 -3 6 -8 10 -10 10 -2
0 -7 -4 -10 -10z"/>
<path d="M1625 4830 c-4 -6 19 -10 66 -10 86 0 87 5 2 14 -39 4 -64 3 -68 -4z"/>
<path d="M1775 4830 c-8 -13 5 -13 25 0 13 8 13 10 -2 10 -9 0 -20 -4 -23 -10z"/>
<path d="M4196 4832 c-4 -7 -16 -12 -26 -12 -20 0 -36 -17 -26 -28 4 -3 16 0
27 7 18 10 24 10 38 -3 34 -31 43 -13 13 25 -13 15 -21 19 -26 11z"/>
<path d="M4250 4829 c0 -5 5 -7 10 -4 6 3 10 8 10 11 0 2 -4 4 -10 4 -5 0 -10
-5 -10 -11z"/>
<path d="M4340 4825 c0 -9 5 -15 11 -13 6 2 11 8 11 13 0 5 -5 11 -11 13 -6 2
-11 -4 -11 -13z"/>
<path d="M30 4820 c0 -5 12 -10 28 -9 24 0 25 1 7 9 -27 12 -35 12 -35 0z"/>
<path d="M688 4823 c6 -2 18 -2 25 0 6 3 1 5 -13 5 -14 0 -19 -2 -12 -5z"/>
<path d="M745 4820 c4 -6 11 -8 16 -5 14 9 11 15 -7 15 -8 0 -12 -5 -9 -10z"/>
<path d="M835 4820 c27 -12 35 -12 35 0 0 6 -12 10 -27 9 -25 0 -26 -1 -8 -9z"/>
<path d="M900 4820 c0 -5 6 -10 14 -10 8 0 18 5 21 10 3 6 -3 10 -14 10 -12 0
-21 -4 -21 -10z"/>
<path d="M985 4820 c-4 -6 3 -10 14 -10 25 0 27 6 6 13 -8 4 -17 2 -20 -3z"/>
<path d="M100 4816 c0 -8 51 -13 56 -5 3 5 -9 9 -25 9 -17 0 -31 -2 -31 -4z"/>
<path d="M180 4810 c0 -5 10 -10 23 -10 18 0 19 2 7 10 -19 13 -30 13 -30 0z"/>
<path d="M345 4809 c-15 -6 -11 -8 20 -10 22 -1 52 -2 68 -3 15 -1 27 2 27 6
0 4 -8 8 -17 9 -10 1 -31 2 -48 4 -16 1 -39 -1 -50 -6z"/>
<path d="M499 4809 c-22 -5 -23 -6 -4 -11 32 -9 105 -8 105 1 0 11 -70 18
-101 10z"/>
<path d="M1045 4810 c3 -5 15 -10 26 -10 11 0 17 5 14 10 -3 6 -15 10 -26 10
-11 0 -17 -4 -14 -10z"/>
<path d="M258 4803 c7 -3 16 -2 19 1 4 3 -2 6 -13 5 -11 0 -14 -3 -6 -6z"/>
<path d="M1133 4803 c9 -2 23 -2 30 0 6 3 -1 5 -18 5 -16 0 -22 -2 -12 -5z"/>
<path d="M1190 4806 c0 -2 11 -6 25 -8 14 -3 25 -1 25 3 0 5 -11 9 -25 9 -14
0 -25 -2 -25 -4z"/>
<path d="M1270 4803 c0 -5 12 -9 27 -10 19 -1 22 1 12 8 -17 11 -39 12 -39 2z"/>
<path d="M0 4789 c0 -5 24 -9 53 -10 28 0 71 -1 95 -3 24 -1 45 1 48 6 3 4
-32 8 -78 9 -46 0 -91 2 -100 4 -10 2 -18 -1 -18 -6z"/>
<path d="M648 4793 c6 -2 18 -2 25 0 6 3 1 5 -13 5 -14 0 -19 -2 -12 -5z"/>
<path d="M710 4791 c0 -5 11 -8 25 -7 33 1 33 16 0 16 -14 0 -25 -4 -25 -9z"/>
<path d="M790 4790 c0 -5 11 -10 25 -10 14 0 25 5 25 10 0 6 -11 10 -25 10
-14 0 -25 -4 -25 -10z"/>
<path d="M865 4790 c-4 -6 7 -10 27 -10 25 0 29 3 18 10 -19 13 -37 13 -45 0z"/>
<path d="M1433 4793 c9 -2 23 -2 30 0 6 3 -1 5 -18 5 -16 0 -22 -2 -12 -5z"/>
<path d="M1498 4793 c6 -2 18 -2 25 0 6 3 1 5 -13 5 -14 0 -19 -2 -12 -5z"/>
<path d="M1570 4796 c0 -2 9 -6 20 -9 11 -3 20 -1 20 4 0 5 -9 9 -20 9 -11 0
-20 -2 -20 -4z"/>
<path d="M1640 4790 c0 -5 10 -10 23 -10 18 0 19 2 7 10 -19 13 -30 13 -30 0z"/>
<path d="M215 4780 c3 -5 21 -10 38 -10 24 0 28 3 17 10 -20 13 -63 13 -55 0z"/>
<path d="M943 4783 c9 -2 25 -2 35 0 9 3 1 5 -18 5 -19 0 -27 -2 -17 -5z"/>
<path d="M1015 4780 c3 -5 17 -10 31 -10 13 0 24 5 24 10 0 6 -14 10 -31 10
-17 0 -28 -4 -24 -10z"/>
<path d="M1080 4780 c0 -6 27 -10 67 -10 81 0 79 5 -4 14 -42 5 -63 3 -63 -4z"/>
<path d="M295 4775 c24 -8 205 -11 205 -4 0 5 -48 9 -107 8 -60 0 -103 -2 -98
-4z"/>
<path d="M525 4770 c3 -5 18 -10 33 -10 21 0 24 2 12 10 -20 13 -53 13 -45 0z"/>
<path d="M1243 4773 c9 -2 25 -2 35 0 9 3 1 5 -18 5 -19 0 -27 -2 -17 -5z"/>
<path d="M1305 4770 c3 -5 18 -10 32 -10 32 0 28 5 -10 14 -19 4 -26 3 -22 -4z"/>
<path d="M1380 4770 c0 -5 14 -10 31 -10 17 0 28 4 24 10 -3 6 -17 10 -31 10
-13 0 -24 -4 -24 -10z"/>
<path d="M1450 4772 c0 -12 110 -22 130 -11 10 5 -5 9 -42 9 -31 0 -63 3 -72
6 -9 3 -16 2 -16 -4z"/>
<path d="M602 4765 c2 -3 51 -7 109 -10 72 -4 99 -3 89 4 -15 10 -208 16 -198
6z"/>
<path d="M845 4759 c-16 -6 -14 -8 13 -8 33 -1 41 4 20 12 -7 2 -22 1 -33 -4z"/>
<path d="M3997 4756 c-10 -8 -14 -17 -8 -20 8 -5 41 18 41 30 0 8 -15 3 -33
-10z"/>
<path d="M4059 4751 c6 -10 19 -21 30 -24 19 -5 19 -4 4 19 -19 29 -49 34 -34
5z"/>
<path d="M4360 4759 c0 -5 5 -7 10 -4 6 3 10 8 10 11 0 2 -4 4 -10 4 -5 0 -10
-5 -10 -11z"/>
<path d="M32 4755 c3 -3 39 -8 79 -10 227 -13 279 -14 279 -5 0 6 -21 10 -47
10 -27 0 -109 3 -183 6 -74 2 -131 2 -128 -1z"/>
<path d="M911 4756 c9 -8 119 -13 119 -5 0 5 -28 9 -62 9 -34 0 -59 -2 -57 -4z"/>
<path d="M1054 4751 c3 -5 36 -9 73 -9 44 0 62 3 52 9 -18 11 -132 12 -125 0z"/>
<path d="M4220 4750 c0 -21 17 -46 25 -38 4 4 0 17 -9 30 -10 14 -16 17 -16 8z"/>
<path d="M1206 4735 c4 -10 0 -15 -16 -15 -11 0 -19 -4 -15 -9 3 -6 36 -10 72
-10 45 0 62 3 53 9 -8 6 -28 10 -45 11 -17 1 -23 3 -12 6 24 6 11 23 -18 23
-18 0 -23 -4 -19 -15z"/>
<path d="M1295 4740 c-3 -5 3 -10 14 -10 12 0 21 5 21 10 0 6 -6 10 -14 10 -8
0 -18 -4 -21 -10z"/>
<path d="M420 4736 c0 -2 11 -6 25 -8 14 -3 25 -1 25 3 0 5 -11 9 -25 9 -14 0
-25 -2 -25 -4z"/>
<path d="M500 4736 c0 -9 39 -13 51 -5 10 6 4 9 -18 9 -18 0 -33 -2 -33 -4z"/>
<path d="M589 4729 c16 -6 28 -6 35 1 7 7 -1 10 -24 9 -33 0 -34 -1 -11 -10z"/>
<path d="M660 4730 c0 -5 9 -10 20 -10 11 0 20 5 20 10 0 6 -9 10 -20 10 -11
0 -20 -4 -20 -10z"/>
<path d="M726 4731 c-6 -10 33 -23 46 -15 4 3 8 9 8 15 0 12 -47 12 -54 0z"/>
<path d="M1373 4733 c9 -2 23 -2 30 0 6 3 -1 5 -18 5 -16 0 -22 -2 -12 -5z"/>
<path d="M1448 4733 c6 -2 18 -2 25 0 6 3 1 5 -13 5 -14 0 -19 -2 -12 -5z"/>
<path d="M16 4722 c-2 -4 4 -9 15 -9 10 -1 19 2 19 8 0 11 -27 12 -34 1z"/>
<path d="M83 4717 c4 -13 47 -20 47 -8 0 5 -11 11 -25 14 -15 2 -24 0 -22 -6z"/>
<path d="M195 4720 c-30 -5 -36 -8 -23 -14 9 -4 21 -6 25 -3 4 3 41 2 81 -2
40 -4 78 -4 84 0 14 9 -18 19 -57 17 -17 0 -39 1 -50 4 -11 3 -38 2 -60 -2z"/>
<path d="M815 4720 c27 -12 35 -12 35 0 0 6 -12 10 -27 9 -25 0 -26 -1 -8 -9z"/>
<path d="M875 4720 c3 -5 15 -10 26 -10 10 0 19 5 19 10 0 6 -12 10 -26 10
-14 0 -23 -4 -19 -10z"/>
<path d="M1026 4723 c-10 -10 4 -22 19 -16 8 3 15 0 15 -6 0 -17 -50 -13 -56
4 -4 8 -16 15 -28 14 -20 0 -20 -1 -1 -9 27 -12 22 -12 -150 -11 -89 1 -145
-2 -137 -7 7 -5 82 -10 166 -11 84 0 178 -3 209 -6 31 -2 59 0 62 5 3 6 -5 10
-18 10 -14 0 -27 6 -30 14 -6 14 -42 28 -51 19z"/>
<path d="M6050 4721 c0 -5 13 -11 30 -14 22 -5 28 -10 23 -23 -5 -14 -3 -15
15 -5 34 18 59 -3 54 -46 -3 -25 -1 -34 9 -32 8 1 22 -1 32 -6 24 -10 26 -6
18 39 -6 38 -8 39 -73 60 -37 12 -71 25 -74 29 -10 10 -34 9 -34 -2z"/>
<path d="M1110 4710 c0 -5 9 -10 20 -10 11 0 20 5 20 10 0 6 -9 10 -20 10 -11
0 -20 -4 -20 -10z"/>
<path d="M1560 4710 c-9 -6 -10 -10 -3 -10 6 0 15 5 18 10 8 12 4 12 -15 0z"/>
<path d="M3965 4709 c-16 -24 30 -40 130 -45 33 -2 78 -5 100 -7 40 -4 69 8
59 24 -3 5 -13 9 -24 9 -10 0 -21 8 -24 17 -5 12 -10 13 -18 5 -8 -8 -8 -15 2
-27 15 -18 11 -19 -27 -4 -15 6 -44 11 -63 11 -19 -1 -56 6 -82 13 -29 8 -50
10 -53 4z"/>
<path d="M395 4700 c28 -12 45 -12 45 0 0 6 -15 10 -32 9 -28 0 -30 -2 -13 -9z"/>
<path d="M455 4701 c3 -6 29 -11 57 -11 64 0 56 12 -13 17 -34 3 -49 1 -44 -6z"/>
<path d="M1348 4703 c6 -2 18 -2 25 0 6 3 1 5 -13 5 -14 0 -19 -2 -12 -5z"/>
<path d="M41 4691 c-9 -6 -4 -10 18 -13 33 -5 42 6 15 16 -19 7 -16 8 -33 -3z"/>
<path d="M611 4696 c12 -10 59 -15 59 -6 0 5 -14 10 -32 10 -17 0 -29 -2 -27
-4z"/>
<path d="M115 4680 c3 -5 17 -10 31 -10 13 0 24 5 24 10 0 6 -14 10 -31 10
-17 0 -28 -4 -24 -10z"/>
<path d="M200 4680 c-11 -7 -7 -10 18 -10 17 0 32 5 32 10 0 13 -30 13 -50 0z"/>
<path d="M290 4680 c-24 -8 -23 -8 8 -9 20 -1 31 3 27 9 -3 6 -7 10 -8 9 -1
-1 -13 -5 -27 -9z"/>
<path d="M1145 4681 c3 -7 44 -11 97 -11 50 0 89 2 86 5 -11 11 -190 16 -183
6z"/>
<path d="M342 4675 c11 -11 58 -15 58 -5 0 5 -14 10 -32 10 -17 0 -29 -2 -26
-5z"/>
<path d="M430 4670 c0 -5 14 -10 32 -10 36 0 33 9 -6 16 -14 2 -26 0 -26 -6z"/>
<path d="M587 4668 c-15 -10 -14 -10 107 -14 54 -2 95 0 91 4 -10 10 -185 18
-198 10z"/>
<path d="M3870 4659 c0 -15 7 -32 15 -39 20 -17 20 5 0 40 l-14 25 -1 -26z"/>
<path d="M513 4663 c9 -2 25 -2 35 0 9 3 1 5 -18 5 -19 0 -27 -2 -17 -5z"/>
<path d="M13 4653 c9 -2 23 -2 30 0 6 3 -1 5 -18 5 -17 0 -22 -2 -12 -5z"/>
<path d="M74 4652 c3 -6 51 -11 109 -11 56 0 122 -4 147 -7 30 -4 42 -3 35 4
-14 14 -299 27 -291 14z"/>
<path d="M802 4655 c4 -4 75 -8 158 -10 84 -2 155 -6 158 -9 3 -4 -4 -6 -16
-6 -12 0 -22 -4 -22 -9 0 -17 20 -23 48 -16 15 4 21 10 15 12 -7 3 -13 9 -13
14 0 11 134 9 152 -3 13 -8 -37 -12 -94 -8 -16 1 -28 -4 -28 -10 0 -7 14 -11
33 -10 64 4 107 0 107 -10 0 -6 -51 -8 -132 -5 -77 3 -128 1 -122 -4 5 -5 62
-11 127 -14 64 -2 121 -7 124 -11 4 -4 -51 -7 -122 -6 -170 1 -167 2 -160 -10
7 -11 5 -11 -107 -13 -43 0 -78 -4 -78 -9 0 -4 18 -8 40 -8 22 0 40 -4 40 -10
0 -5 -7 -10 -15 -10 -8 0 -15 -4 -15 -10 0 -5 26 -10 58 -10 31 -1 100 -3 152
-6 68 -3 91 -1 83 7 -5 5 -44 11 -86 11 -41 0 -81 4 -88 9 -15 9 27 14 95 9
26 -1 36 2 32 9 -4 6 -18 11 -32 11 -13 0 -24 4 -24 8 0 4 42 7 93 6 130 -3
129 -3 122 -14 -3 -5 -20 -7 -37 -3 -24 5 -30 3 -26 -8 3 -8 13 -14 23 -14 12
0 21 -10 26 -27 l7 -27 -72 5 c-39 2 -84 0 -101 -5 -24 -7 -13 -9 55 -10 47
-1 92 -6 100 -11 8 -5 11 -10 5 -11 -21 -1 -173 2 -233 6 -45 3 -62 1 -60 -7
4 -12 21 -13 186 -17 64 -2 92 -6 92 -15 0 -9 -15 -10 -57 -6 -32 4 -67 3 -78
-1 -25 -10 -23 -11 48 -14 65 -3 64 -3 69 -30 3 -21 1 -21 -82 -24 -22 0 -40
-6 -40 -12 0 -8 14 -10 39 -6 39 5 72 -5 53 -17 -9 -5 -333 1 -447 9 -151 10
-228 10 -232 -2 -3 -9 17 -13 74 -13 43 -1 116 -3 163 -5 47 -2 161 -6 254 -9
94 -3 174 -10 179 -15 21 -21 -2 -41 -50 -42 -26 -1 -52 -1 -56 0 -5 1 -6 -3
-2 -9 4 -6 -5 -10 -20 -10 -17 0 -24 4 -19 11 3 6 -4 5 -17 -3 -25 -16 -78
-16 -254 -4 -49 3 -130 9 -180 12 -49 3 -94 10 -100 15 -11 11 -38 12 -31 1 3
-5 -88 -7 -202 -4 -114 2 -204 0 -200 -4 8 -8 37 -11 168 -19 47 -3 103 -8
125 -10 22 -2 53 -4 68 -4 16 -1 26 -5 23 -10 -4 -5 -18 -8 -34 -6 -15 2 -114
6 -221 9 l-194 5 6 -295 c3 -163 7 -297 9 -299 1 -1 39 -6 83 -9 108 -9 113
-12 118 -49 3 -24 4 -20 5 16 3 83 20 50 27 -54 7 -90 9 -101 29 -108 11 -5
28 -7 36 -5 8 1 18 3 23 3 4 1 7 48 7 106 0 58 4 105 9 105 5 0 12 -48 17
-107 l9 -108 43 -3 42 -3 1 68 c1 125 18 32 20 -107 1 -118 -6 -167 -18 -132
-3 7 -22 12 -44 12 l-39 0 0 -55 c0 -37 4 -55 13 -56 6 -1 22 -3 35 -4 13 -1
26 4 28 11 15 48 16 49 29 14 11 -33 15 -35 60 -37 68 -3 70 -5 73 -57 1 -26
9 -57 19 -70 l18 -24 47 25 c57 30 68 42 73 82 3 26 0 31 -17 31 -16 0 -19 -5
-16 -25 4 -20 -2 -29 -33 -50 -22 -14 -39 -21 -39 -15 0 12 37 50 43 44 2 -3
2 6 0 20 -5 22 -7 23 -31 10 -30 -15 -52 -3 -34 18 7 9 7 19 2 28 -6 8 -10
135 -10 283 0 296 -6 272 65 268 66 -4 72 -8 81 -57 10 -53 -9 -46 166 -59 49
-4 90 -10 92 -13 2 -4 -2 -36 -9 -72 -7 -36 -18 -99 -24 -140 -7 -41 -16 -97
-21 -125 -8 -46 -13 -73 -40 -232 -13 -81 -59 -339 -70 -393 -5 -25 -14 -74
-20 -110 -6 -36 -15 -81 -20 -100 -5 -19 -18 -94 -30 -166 -11 -71 -27 -153
-34 -180 -7 -28 -14 -93 -15 -144 -1 -51 -7 -103 -13 -114 -6 -12 -10 -23 -9
-26 1 -3 -6 -22 -16 -42 l-18 -38 -208 0 -207 0 -17 40 c-18 40 -53 57 -53 25
0 -8 -7 -15 -15 -15 -17 0 -20 -16 -5 -25 28 -17 5 -26 -55 -22 -51 4 -65 2
-65 -9 0 -10 14 -14 53 -14 28 0 63 -6 77 -13 15 -8 35 -10 50 -6 31 9 352 11
402 3 41 -7 41 -1 11 -159 -25 -135 -32 -166 -40 -178 -4 -7 -7 -21 -8 -32 0
-19 -6 -20 -269 -16 -220 2 -268 1 -264 -10 5 -16 -11 -15 273 -17 127 -1 236
-6 244 -11 8 -5 11 -16 6 -31 l-7 -22 -257 3 -256 4 0 -25 0 -25 230 -3 c127
-1 241 -5 254 -8 24 -5 24 -8 5 -107 l-6 -27 -164 0 -165 0 3 -22 c2 -13 9
-23 16 -23 20 0 32 -26 32 -72 0 -30 4 -43 14 -43 8 0 22 -3 31 -6 15 -6 17 1
14 67 -3 62 -1 74 13 77 9 2 19 -2 23 -7 3 -6 1 -11 -4 -11 -7 0 -10 -23 -9
-57 l1 -58 6 49 c10 81 30 69 33 -20 3 -84 24 -116 30 -47 l4 38 8 -40 c14
-65 46 -71 46 -9 0 21 4 33 10 29 6 -3 10 -17 10 -30 0 -13 4 -25 10 -27 13
-4 -7 -78 -21 -78 -6 0 -7 -5 -4 -10 11 -18 -6 -70 -31 -97 -13 -14 -21 -29
-18 -34 3 -5 1 -9 -3 -9 -5 0 -9 27 -10 61 -2 69 -10 99 -25 99 -7 0 -9 -63
-4 -202 3 -112 6 -215 6 -230 0 -31 25 -38 60 -16 16 10 24 9 47 -8 15 -12 28
-27 28 -35 0 -8 6 -18 12 -22 7 -4 13 -17 13 -27 0 -31 27 -23 39 11 14 40 14
39 -6 39 -17 0 -18 15 -15 190 2 105 6 188 11 186 4 -3 11 -44 15 -92 3 -47
11 -94 16 -104 6 -11 13 -46 17 -80 3 -33 10 -63 14 -66 5 -3 6 -25 2 -49 -4
-31 -1 -52 9 -67 8 -13 17 -31 21 -40 5 -15 2 -16 -18 -8 -23 9 -75 -1 -75
-15 0 -3 27 -5 60 -5 43 0 60 4 60 13 0 7 13 28 29 46 25 28 29 41 29 86 l-1
53 -49 6 c-27 4 -46 11 -43 16 4 6 13 10 21 10 24 0 34 46 34 162 0 130 9 142
12 16 1 -47 7 -96 13 -108 11 -21 12 -21 13 9 0 17 3 35 7 41 8 13 165 13 199
0 25 -9 25 -11 28 -132 l3 -123 62 1 c35 0 65 3 67 5 3 3 1 448 -4 989 -13
1311 -17 2846 -7 2856 4 4 9 5 11 3 3 -2 9 -344 15 -759 6 -415 16 -1090 22
-1500 6 -410 13 -937 16 -1172 4 -310 8 -428 17 -429 6 0 31 0 55 1 l44 2 -7
-46 -7 -46 174 0 174 0 5 122 c3 68 3 287 -1 488 -3 201 -5 406 -3 455 l3 90
107 -3 c59 -1 136 -4 172 -5 l64 -2 9 -35 c4 -19 11 -50 15 -69 9 -44 29 -51
42 -14 33 86 45 104 72 110 21 4 28 11 28 29 0 28 -1 28 -35 12 -22 -10 -27
-9 -39 8 -14 18 -15 18 -21 2 -8 -21 -28 -23 -44 -4 -8 10 -59 14 -202 18
-115 4 -195 10 -202 17 -7 7 -7 18 -1 32 10 21 15 21 197 21 113 -1 187 3 187
8 0 6 -1 11 -2 12 -2 0 -91 4 -198 7 -164 5 -195 8 -195 21 0 9 11 16 28 18
22 3 27 9 28 30 1 15 3 45 6 67 2 22 4 89 3 148 0 60 2 117 5 128 6 18 17 19
155 19 156 0 180 -3 180 -26 0 -8 4 -14 10 -14 10 0 13 11 28 90 7 43 9 45 42
45 19 -1 61 -4 93 -9 56 -7 57 -7 57 17 0 14 -10 32 -22 41 l-23 17 23 -5 c17
-3 22 -1 18 9 -7 19 7 22 81 14 75 -8 101 -26 105 -78 l3 -36 60 -7 c33 -4
116 -7 185 -7 69 0 238 -3 376 -7 l251 -7 7 37 c4 20 4 41 1 46 -12 19 39 31
143 33 96 2 111 0 144 -21 28 -17 39 -32 44 -58 3 -19 9 -36 13 -38 11 -7 922
-28 929 -22 3 3 6 26 6 51 1 56 8 59 152 60 83 0 105 -3 121 -17 11 -10 25
-18 31 -18 11 0 17 -16 24 -65 3 -19 13 -20 223 -26 121 -4 310 -8 420 -9
l200 -3 1 49 c1 48 1 49 40 57 21 5 79 7 128 5 68 -3 91 -8 101 -21 7 -9 19
-17 27 -17 10 0 18 -14 22 -40 6 -36 9 -40 36 -40 31 0 34 5 33 71 -1 23 4 28
36 33 20 3 73 6 119 6 48 0 82 4 82 10 0 6 -35 10 -82 11 -46 0 -103 4 -128 7
-44 7 -44 8 -23 22 25 19 25 18 17 495 -6 363 -8 900 -4 1052 2 78 7 109 21
133 25 41 61 57 94 42 35 -16 48 -52 54 -162 l6 -95 30 -6 c17 -4 76 -7 133
-8 96 -1 102 0 102 19 0 11 4 20 9 20 12 0 21 -26 21 -63 0 -42 19 -107 30
-107 6 0 10 5 10 11 0 8 4 8 14 0 12 -10 16 -6 22 21 10 44 11 47 12 91 3 59
19 35 27 -40 10 -92 20 -116 45 -108 11 3 20 2 20 -4 0 -5 -12 -12 -27 -14
-27 -4 -27 -4 3 -6 34 -1 46 14 38 46 -3 10 -1 29 4 43 8 23 9 22 16 -15 4
-22 12 -45 17 -52 6 -6 6 -14 1 -17 -4 -2 -7 -26 -6 -53 1 -26 3 -86 4 -133 2
-47 8 -88 14 -92 6 -4 48 -8 94 -8 45 0 82 -4 82 -9 0 -4 11 -20 25 -35 14
-15 25 -37 25 -49 0 -13 9 -47 20 -77 22 -61 20 -68 22 95 1 50 1 116 0 148
l-2 58 -32 -3 c-18 -2 -32 -6 -30 -10 1 -5 2 -30 2 -57 0 -43 3 -50 23 -54 12
-3 6 -4 -13 -4 l-35 2 -2 203 c0 111 3 205 8 208 5 3 9 0 9 -5 0 -17 30 -13
36 4 4 8 12 15 20 15 10 0 14 15 14 54 l0 54 51 7 c27 4 53 4 56 1 4 -3 8 -30
11 -60 l4 -53 122 -7 c66 -3 217 -9 334 -12 238 -8 226 -2 197 -85 -12 -32
-12 -44 -4 -50 8 -5 10 -25 5 -63 -4 -34 -2 -56 4 -56 10 0 5 -84 -6 -101 -3
-6 0 -16 6 -24 7 -8 11 -37 9 -67 -2 -29 -2 -75 0 -103 2 -45 3 -48 13 -25 10
24 11 142 3 317 -2 45 0 96 5 113 5 18 5 30 -1 30 -12 0 -12 77 0 85 5 3 12
-9 14 -27 2 -18 5 11 5 65 3 133 22 128 22 -5 1 -57 1 -173 1 -258 1 -85 -2
-162 -5 -171 -6 -13 3 -17 55 -23 34 -3 107 -6 163 -6 56 -1 120 -5 143 -9 42
-8 76 0 54 13 -12 8 -14 185 -4 394 5 109 8 124 26 133 22 12 107 3 107 -12 0
-5 -17 -7 -40 -3 l-40 7 0 -42 c0 -51 18 -75 43 -56 9 7 17 22 17 33 0 11 5
24 10 27 6 4 10 -6 10 -23 0 -37 12 -42 106 -42 l74 0 0 284 c0 263 -1 285
-18 290 -19 5 -135 12 -497 26 -137 6 -356 14 -485 20 -129 5 -311 12 -405 15
-93 3 -253 10 -355 15 -102 5 -255 12 -340 15 -225 8 -250 12 -250 39 0 45 71
95 123 87 45 -7 393 -22 847 -36 102 -4 205 -8 230 -10 53 -4 243 -14 388 -20
57 -2 124 -7 150 -10 44 -6 46 -5 28 9 -11 9 -38 16 -60 17 -37 0 -39 1 -17
10 14 5 31 7 38 5 7 -3 106 -8 221 -12 114 -3 211 -10 216 -15 6 -5 -66 -6
-177 -2 -137 4 -187 3 -187 -5 0 -8 23 -11 68 -11 37 1 96 -1 132 -5 36 -3
123 -8 194 -11 71 -3 134 -7 140 -8 6 -1 12 13 14 31 l3 32 -63 1 c-35 0 -88
2 -118 4 -30 2 -127 6 -215 9 -316 12 -615 29 -615 36 0 4 28 6 63 5 34 -2
123 -6 197 -10 74 -3 182 -8 240 -10 125 -5 289 -13 418 -21 63 -4 92 -2 92 5
0 6 -1 11 -2 11 -2 1 -55 3 -118 6 -156 8 -160 20 -5 16 l124 -4 -2 28 c-2 25
-6 28 -52 31 -28 2 -70 5 -95 8 -25 2 -76 4 -115 5 -54 1 -65 3 -47 11 13 5
27 7 31 4 4 -2 70 -7 147 -10 88 -4 134 -3 124 3 -8 6 -82 13 -165 16 -82 4
-153 11 -158 15 -7 7 24 7 226 -4 69 -3 107 -2 107 5 0 5 -4 10 -10 10 -5 0
-10 5 -10 11 0 5 4 7 10 4 5 -3 10 0 10 7 0 9 -19 14 -62 17 -35 2 -76 4 -93
5 -16 1 -64 3 -105 4 -46 2 -69 6 -60 11 8 4 67 5 130 0 159 -11 190 -11 190
1 0 6 -28 10 -65 10 -36 0 -65 4 -65 9 0 4 23 6 50 4 27 -2 50 0 50 5 0 8 -99
22 -162 22 -44 0 -32 -18 15 -23 23 -2 -9 -4 -70 -5 -68 -1 -113 2 -113 8 0 6
24 7 60 4 70 -6 81 10 18 25 -33 7 -12 8 85 5 71 -3 144 -7 163 -9 31 -3 34
-1 34 25 l0 27 -127 6 c-71 4 -197 10 -281 13 -84 4 -150 9 -147 12 5 6 190 4
241 -3 96 -11 314 -15 314 -6 0 6 -20 11 -44 11 -51 0 -78 8 -70 21 3 5 -1 9
-8 10 -7 1 -38 3 -68 5 -33 3 -59 10 -66 19 -13 17 -55 20 -52 4 4 -14 -20
-18 -52 -8 -25 7 -25 7 4 8 16 1 26 4 22 8 -7 8 -23 9 -191 19 -66 4 -127 11
-135 16 -13 8 -12 9 2 4 25 -7 188 -10 195 -2 3 3 -2 6 -13 6 -11 0 -36 9 -57
20 -44 24 -47 24 -47 5 0 -12 -15 -15 -71 -15 -44 0 -68 -4 -64 -10 3 -5 -3
-10 -15 -10 -12 0 -18 5 -15 10 3 6 -4 10 -17 10 -19 0 -20 -2 -8 -10 13 -9
13 -11 0 -20 -16 -10 -11 -11 158 -16 104 -3 203 -12 210 -19 3 -3 -4 -5 -16
-5 -12 0 -22 -4 -22 -10 0 -5 6 -10 13 -10 8 0 7 -3 -3 -9 -17 -12 -33 -3 -26
14 6 16 -20 21 -119 24 -76 2 -77 2 -69 -21 3 -13 12 -26 18 -30 15 -10 -133
-9 -159 1 -12 5 8 7 49 7 58 -1 69 2 72 17 3 22 -25 37 -71 37 -29 0 -36 -3
-31 -15 4 -11 -1 -15 -19 -15 -17 0 -23 4 -19 14 5 12 -7 16 -53 19 l-58 3 63
2 c39 1 61 6 57 12 -3 6 -20 10 -36 10 -17 0 -32 6 -35 15 -4 8 -18 15 -33 15
-25 -1 -25 -1 -7 -15 18 -14 17 -15 -20 -14 -21 1 -50 5 -64 10 -20 7 -18 8
12 3 20 -2 39 0 43 6 4 6 -7 10 -27 10 -29 0 -79 19 -53 20 12 0 -16 20 -29
20 -5 0 -3 -7 4 -15 11 -13 8 -15 -20 -15 -28 0 -31 2 -20 15 11 13 5 15 -46
14 -33 -1 -51 -3 -41 -6 9 -2 17 -9 17 -14 0 -6 -9 -7 -22 -4 -17 6 -20 4 -15
-9 4 -10 1 -16 -9 -16 -8 0 -13 4 -10 9 7 10 -25 20 -69 22 -17 1 -22 3 -12 6
39 10 13 23 -45 22 -58 -2 -60 -2 -23 -9 29 -5 10 -8 -67 -9 -60 0 -108 -5
-108 -9 0 -5 46 -9 102 -10 60 -1 106 -6 112 -12 8 -9 -18 -11 -101 -7 -62 3
-113 2 -113 -2 0 -5 69 -13 153 -19 l152 -10 -152 5 c-107 3 -153 1 -153 -6 0
-6 20 -11 48 -11 26 -1 96 -3 155 -6 95 -5 110 -4 121 11 11 15 23 16 96 10
46 -4 77 -11 69 -15 -8 -4 -44 -4 -81 -1 -38 4 -68 3 -68 -1 0 -5 8 -8 18 -8
14 0 15 -2 2 -10 -8 -5 -33 -7 -55 -5 -100 11 -305 14 -305 6 0 -5 29 -13 65
-16 36 -4 65 -10 65 -14 0 -4 -16 -5 -35 -3 -21 3 -35 0 -35 -7 0 -7 26 -11
72 -11 40 0 68 -4 62 -9 -5 -4 -47 -5 -94 -1 -47 4 -77 8 -67 8 41 4 8 32 -39
32 -17 0 -22 4 -18 15 5 12 -3 15 -42 15 -26 0 -44 3 -40 7 3 4 24 6 46 5 42
-3 56 14 18 21 l-23 4 23 2 c39 2 14 21 -28 21 -21 0 -42 5 -46 12 -4 7 -3 8
4 4 7 -4 17 -4 23 0 24 14 -18 24 -106 23 -83 0 -88 -1 -65 -14 l25 -14 -32
-1 c-23 0 -33 5 -33 15 0 8 -4 15 -10 15 -5 0 -13 0 -17 0 -5 0 -8 -6 -8 -12
0 -10 -20 -12 -75 -10 -54 2 -71 0 -60 -7 8 -6 29 -11 47 -11 25 0 31 -4 27
-15 -5 -11 2 -15 27 -17 78 -3 167 -7 208 -7 24 -1 42 -4 38 -7 -3 -4 -50 -6
-103 -5 -69 2 -94 -1 -89 -9 4 -7 15 -10 25 -7 10 2 24 1 31 -4 9 -5 -8 -9
-45 -9 -33 0 -56 -3 -53 -7 4 -3 2 -12 -4 -19 -17 -20 2 -24 148 -29 76 -3
176 -8 223 -10 47 -2 111 -4 143 -5 31 0 57 -3 57 -8 0 -4 -53 -6 -117 -4 -77
3 -115 0 -108 -6 8 -7 158 -19 289 -22 5 0 3 -6 -3 -14 -17 -20 1 -23 149 -26
69 -1 132 -6 140 -11 9 -6 -19 -7 -75 -4 -49 3 -162 8 -250 10 -186 4 -174 3
-156 14 8 5 50 7 93 5 53 -3 77 -1 73 6 -11 17 -174 13 -192 -5 -11 -12 -28
-14 -61 -10 -55 6 -71 18 -22 15 19 -1 44 -1 55 -1 19 2 19 2 2 12 -9 6 -25 9
-35 8 -9 -1 -26 -1 -36 0 -19 1 -19 1 -1 15 17 12 17 13 -6 19 -13 3 -67 6
-119 6 -52 0 -138 3 -190 6 -72 3 -85 2 -55 -5 22 -5 54 -14 70 -19 l30 -9
-27 -1 c-42 -1 -33 -21 10 -23 l37 -1 -45 -7 c-25 -3 -74 -5 -110 -4 -36 2
-139 6 -230 9 -91 3 -307 13 -480 21 -173 8 -376 17 -450 19 -74 2 -182 7
-240 9 -58 3 -170 8 -250 11 -135 5 -672 28 -910 40 -58 2 -177 7 -265 10 -88
3 -248 10 -355 15 -381 19 -637 31 -775 35 -155 5 -384 14 -515 20 -47 2 -227
9 -400 14 -173 6 -357 13 -408 17 -86 5 -94 8 -104 30 -8 17 -8 27 2 39 10 12
10 15 -2 15 -8 0 -22 15 -30 34 -10 20 -25 35 -40 38 -39 7 -503 10 -496 3z
m6193 -145 c3 -5 -1 -10 -10 -10 -9 0 -13 5 -10 10 3 6 8 10 10 10 2 0 7 -4
10 -10z m625 0 c0 -5 -7 -10 -15 -10 -8 0 -15 5 -15 10 0 6 7 10 15 10 8 0 15
-4 15 -10z m-6640 -10 c0 -5 -15 -9 -32 -9 l-33 1 30 8 c17 4 31 8 33 9 1 0 2
-3 2 -9z m5960 -26 c0 -2 -9 -4 -21 -4 -11 0 -18 4 -14 10 5 8 35 3 35 -6z
m750 6 c3 0 -2 -4 -10 -9 -18 -9 -117 -2 -102 8 9 5 82 6 112 1z m-565 -10
c-8 -13 -115 -13 -135 0 -10 7 9 10 63 10 50 0 76 -4 72 -10z m625 -30 c-20
-13 -33 -13 -25 0 3 6 14 10 23 10 15 0 15 -2 2 -10z m55 0 c-3 -5 -14 -10
-23 -9 -14 0 -13 2 3 9 27 11 27 11 20 0z m-116 -26 c2 -2 -16 -4 -42 -4 -25
0 -48 4 -51 9 -5 8 84 3 93 -5z m-702 0 c-3 -3 -12 -4 -19 -1 -8 3 -5 6 6 6
11 1 17 -2 13 -5z m73 2 c0 -11 -19 -15 -25 -6 -3 5 1 10 9 10 9 0 16 -2 16
-4z m88 -14 c-10 -2 -18 -10 -18 -18 0 -9 -11 -14 -32 -13 -27 0 -30 2 -13 9
l20 8 -20 8 c-19 8 -18 8 5 14 14 3 36 4 50 1 18 -4 20 -6 8 -9z m599 12 c-3
-3 -12 -4 -19 -1 -8 3 -5 6 6 6 11 1 17 -2 13 -5z m78 -4 c3 -5 -3 -10 -14
-10 -11 0 -23 5 -26 10 -3 6 3 10 14 10 11 0 23 -4 26 -10z m202 -6 c-3 -3
-12 -4 -19 -1 -8 3 -5 6 6 6 11 1 17 -2 13 -5z m-1117 -18 c0 -8 -8 -13 -17
-11 -10 2 -20 4 -23 4 -7 2 23 21 33 21 4 0 7 -6 7 -14z m578 5 c20 -12 -24
-22 -52 -11 -12 4 -34 6 -48 3 -14 -3 -29 0 -32 6 -9 13 112 15 132 2z m52 5
c0 -3 -4 -8 -10 -11 -5 -3 -10 -1 -10 4 0 6 5 11 10 11 6 0 10 -2 10 -4z m145
-15 c-6 -10 -112 -7 -122 3 -4 3 24 6 61 6 38 0 65 -4 61 -9z m114 -7 c2 -1
-20 -3 -49 -2 -35 0 -48 3 -39 9 12 7 77 3 88 -7z m596 6 c4 -6 -6 -10 -22
-10 -22 0 -25 2 -13 10 19 12 27 12 35 0z m-512 -7 c-13 -2 -33 -2 -45 0 -13
2 -3 4 22 4 25 0 35 -2 23 -4z m697 -3 c11 -7 8 -9 -15 -9 -16 1 -43 5 -60 9
-27 7 -26 8 15 9 25 0 52 -4 60 -9z m-423 -6 c-3 -3 -12 -4 -19 -1 -8 3 -5 6
6 6 11 1 17 -2 13 -5z m-479 -15 c-7 -5 -26 -9 -42 -9 -16 0 -27 -2 -25 -5 5
-5 103 -12 194 -15 33 -1 44 -4 31 -9 -23 -9 -237 -3 -285 8 l-36 9 45 1 c61
1 39 19 -30 24 -30 2 -6 4 53 4 61 0 102 -4 95 -8z m202 -3 c8 -2 -28 -4 -80
-5 -52 0 -89 3 -83 7 12 7 127 5 163 -2z m279 -12 c2 -2 -46 -4 -107 -4 -61 0
-113 4 -116 9 -5 8 214 3 223 -5z m-689 -4 c12 -8 11 -10 -7 -10 -12 0 -25 5
-28 10 -8 13 15 13 35 0z m890 -4 c14 -2 -24 -3 -85 -4 -60 0 -100 3 -87 6 21
7 116 5 172 -2z m-1385 -6 c-3 -5 -21 -9 -38 -9 l-32 1 30 8 c43 11 47 11 40
0z m1585 -4 c8 -2 -22 -4 -67 -5 -46 0 -83 3 -83 7 0 7 114 5 150 -2z m-1445
-6 c-7 -12 -42 -13 -49 -2 -2 4 9 9 25 10 19 2 28 -2 24 -8z m914 -6 c2 -2
-35 -4 -82 -4 -48 0 -87 4 -87 9 0 8 161 4 169 -5z m611 0 c0 -2 -9 -4 -21 -4
-11 0 -18 4 -14 10 5 8 35 3 35 -6z m-463 -8 c4 -3 -17 -6 -45 -6 -28 0 -53 4
-56 9 -6 10 91 7 101 -3z m528 4 c-3 -5 -12 -7 -20 -3 -21 7 -19 13 6 13 11 0
18 -4 14 -10z m-1165 -10 c0 -13 -11 -13 -30 0 -12 8 -11 10 8 10 12 0 22 -4
22 -10z m147 0 c37 0 63 -3 60 -7 -10 -10 -128 -4 -146 8 -14 9 -13 10 2 5 10
-3 48 -6 84 -6z m713 0 c3 0 -1 -4 -9 -9 -8 -5 -29 -8 -45 -5 -17 2 -51 5 -76
5 -25 1 -54 5 -65 10 -15 7 142 6 195 -1z m-1290 -16 c0 -5 -4 -9 -10 -8 -5 1
-41 2 -80 3 -38 0 -70 5 -70 9 0 5 36 8 80 7 44 -1 80 -6 80 -11z m777 3 c3
-4 -21 -7 -55 -7 -34 0 -62 4 -62 10 0 10 106 8 117 -3z m46 -4 c-7 -2 -19 -2
-25 0 -7 3 -2 5 12 5 14 0 19 -2 13 -5z m92 -3 c4 -6 -7 -10 -27 -9 -31 1 -32
1 -8 9 14 4 26 8 27 9 1 1 5 -3 8 -9z m141 -7 c-7 -7 -108 -5 -115 3 -2 2 24
4 59 4 35 0 60 -3 56 -7z m-1196 -13 c0 -7 -34 -10 -95 -8 -52 1 -95 6 -95 10
0 5 43 8 95 8 60 0 95 -4 95 -10z m1317 4 c-3 -3 -12 -4 -19 -1 -8 3 -5 6 6 6
11 1 17 -2 13 -5z m-1027 -14 c74 -6 55 -7 -84 -4 -98 2 -181 6 -184 9 -8 7
157 4 268 -5z m780 0 c41 -4 64 -8 50 -9 -38 -4 -146 0 -230 9 l-75 7 90 0
c50 0 124 -3 165 -7z m-5820 -15 c7 -8 9 -15 4 -16 -26 -3 -169 3 -176 7 -25
16 2 24 76 24 62 0 87 -4 96 -15z m5475 -6 c20 -6 -12 -7 -94 -4 -68 3 -151 5
-183 5 -33 0 -57 4 -54 9 7 11 289 3 331 -10z m475 11 c0 -5 -9 -10 -20 -10
-11 0 -20 5 -20 10 0 6 9 10 20 10 11 0 20 -4 20 -10z m-1325 -10 c4 -6 -12
-10 -39 -10 -25 0 -46 5 -46 10 0 6 18 10 39 10 22 0 43 -4 46 -10z m190 -4
c11 -2 -22 -4 -72 -5 -51 0 -93 3 -93 7 0 7 117 6 165 -2z m1303 7 c-26 -2
-71 -2 -100 0 -29 2 -8 3 47 3 55 0 79 -1 53 -3z m-1140 -18 c3 -3 -28 -5 -69
-4 -44 0 -66 3 -55 8 21 8 115 5 124 -4z m937 0 c17 -1 50 -3 75 -4 33 -2 39
-5 22 -9 -26 -8 -294 4 -422 18 -64 7 -39 7 105 3 105 -4 204 -7 220 -8z
m-778 -8 c2 -4 -25 -7 -61 -6 -36 1 -66 6 -66 11 0 11 120 7 127 -5z m-537 -7
c0 -5 -10 -10 -22 -10 -19 0 -20 2 -8 10 19 13 30 13 30 0z m980 -4 c52 -3
110 -5 129 -5 19 -1 31 -4 27 -8 -4 -4 -70 -6 -147 -4 -96 2 -139 0 -139 -8 0
-6 -5 -11 -11 -11 -5 0 -8 4 -5 9 6 10 -26 21 -62 21 -13 0 -21 4 -18 8 3 5
33 7 68 5 35 -2 106 -5 158 -7z m593 -7 c-16 -6 -21 -14 -17 -26 5 -17 5 -17
-9 0 -8 10 -31 21 -51 24 -57 9 -34 18 36 14 48 -2 58 -5 41 -12z m-1536 5
c-3 -3 -12 -4 -19 -1 -8 3 -5 6 6 6 11 1 17 -2 13 -5z m40 0 c-3 -3 -12 -4
-19 -1 -8 3 -5 6 6 6 11 1 17 -2 13 -5z m73 -4 c0 -5 -12 -10 -27 -10 -22 0
-25 2 -13 10 20 13 40 13 40 0z m70 0 c11 -7 4 -10 -25 -9 -31 0 -36 2 -20 9
26 11 28 11 45 0z m1485 0 c7 -12 -38 -12 -75 0 -20 7 -16 8 22 9 26 1 50 -3
53 -9z m-1296 -15 c2 -3 -21 -5 -52 -5 -31 0 -59 5 -62 10 -7 11 103 5 114 -5z
m184 -4 c7 -7 -68 -7 -143 -1 -23 2 -23 3 5 9 34 8 126 2 138 -8z m1235 12
c-10 -2 -26 -2 -35 0 -10 3 -2 5 17 5 19 0 27 -2 18 -5z m-1973 -13 c3 -5 1
-10 -4 -10 -6 0 -11 5 -11 10 0 6 2 10 4 10 3 0 8 -4 11 -10z m69 2 c2 -4 -7
-8 -22 -9 -24 -2 -24 -1 -7 7 11 5 21 9 22 9 1 1 4 -3 7 -7z m795 -8 c2 -2
-19 -4 -48 -4 -29 0 -50 4 -47 9 5 8 85 4 95 -5z m741 6 c27 0 40 -4 35 -9 -6
-6 -52 -6 -114 -1 -57 4 -110 6 -117 3 -7 -2 -21 0 -31 7 -14 9 5 10 82 6 55
-3 120 -6 145 -6z m-7760 -10 c0 -5 -4 -10 -10 -10 -5 0 -10 5 -10 10 0 6 5
10 10 10 6 0 10 -4 10 -10z m285 -1 c11 0 50 2 88 3 37 2 67 0 67 -5 0 -4 3
-6 8 -6 25 4 72 -2 72 -10 0 -10 -83 -8 -325 5 -71 3 -142 7 -157 7 -15 0 -25
4 -22 8 2 4 59 5 127 2 67 -3 131 -5 142 -4z m6052 -5 c-3 -3 -12 -4 -19 -1
-8 3 -5 6 6 6 11 1 17 -2 13 -5z m86 -1 c-13 -2 -33 -2 -45 0 -13 2 -3 4 22 4
25 0 35 -2 23 -4z m54 1 c-3 -3 -12 -4 -19 -1 -8 3 -5 6 6 6 11 1 17 -2 13 -5z
m133 -4 c20 -6 17 -8 -20 -8 -25 0 -58 4 -75 8 -26 7 -23 8 20 8 28 0 61 -4
75 -8z m1040 -6 c52 -4 97 -8 100 -11 8 -8 -449 8 -500 18 -47 8 223 4 400 -7z
m-820 -4 c10 -7 -11 -10 -70 -9 -119 2 -149 18 -35 18 50 0 97 -4 105 -9z
m245 -5 c270 -9 364 -15 388 -25 15 -6 2 -8 -43 -5 -157 11 -245 15 -395 21
-88 3 -164 10 -170 16 -6 6 -1 8 15 4 14 -3 106 -8 205 -11z m-600 -11 c17 -1
65 -2 108 -3 47 -1 77 -5 77 -12 0 -7 -22 -8 -67 -4 -114 11 -313 13 -313 4 0
-5 3 -9 8 -10 15 -2 129 -8 209 -12 46 -2 86 -7 90 -11 8 -8 -304 1 -318 10
-5 3 -7 9 -4 14 8 12 -21 19 -97 22 -38 2 -68 7 -68 12 0 7 192 2 375 -10z
m1368 9 c-13 -2 -35 -2 -50 0 -16 2 -5 4 22 4 28 0 40 -2 28 -4z m-1113 -17
c0 -2 -7 -6 -15 -10 -8 -3 -15 -1 -15 4 0 6 7 10 15 10 8 0 15 -2 15 -4z m110
-12 c0 -2 -13 -4 -30 -4 -16 0 -30 4 -30 8 0 5 14 7 30 4 17 -2 30 -6 30 -8z
m875 4 c46 2 145 -10 145 -19 0 -5 -14 -8 -31 -7 -20 2 -34 -2 -37 -10 -3 -10
5 -13 29 -12 61 4 89 0 89 -10 0 -6 -10 -8 -22 -5 -21 4 -222 14 -312 15 -22
0 -36 3 -32 7 4 4 60 6 124 5 155 -3 129 15 -34 24 -66 4 -126 11 -134 15 -8
5 31 6 90 2 58 -4 114 -6 125 -5z m-1467 -13 c3 -3 -38 -5 -91 -5 -60 0 -97
-4 -97 -10 0 -6 15 -11 33 -11 49 0 187 -6 332 -13 132 -7 221 -10 555 -22
102 -4 194 -11 205 -16 12 -5 -38 -6 -125 -3 -296 10 -437 16 -520 21 -47 2
-159 7 -250 10 -255 8 -289 10 -297 17 -3 4 8 7 25 7 18 0 32 5 32 10 0 6 -5
10 -11 10 -5 0 -7 5 -4 11 7 10 203 5 213 -6z m891 4 c14 0 21 -2 17 -6 -10
-11 -255 -3 -281 8 -12 6 30 7 110 3 72 -4 141 -6 154 -5z m901 -19 c-70 -6
-132 -2 -126 9 2 3 46 4 98 2 l93 -5 -65 -6z m-797 3 c-13 -2 -35 -2 -50 0
-16 2 -5 4 22 4 28 0 40 -2 28 -4z m64 1 c-3 -3 -12 -4 -19 -1 -8 3 -5 6 6 6
11 1 17 -2 13 -5z m183 -4 c27 -1 38 -4 28 -8 -21 -9 -168 -3 -168 7 0 3 21 6
48 5 26 -1 67 -3 92 -4z m660 0 c12 -8 11 -10 -7 -10 -13 0 -23 5 -23 10 0 13
11 13 30 0z m-1275 -10 c3 -5 -3 -10 -15 -10 -12 0 -18 5 -15 10 3 6 10 10 15
10 5 0 12 -4 15 -10z m105 -8 c0 -9 -67 -8 -77 1 -3 4 12 7 35 7 23 0 42 -4
42 -8z m205 -14 c7 -7 -2 -9 -30 -4 -22 3 -62 6 -90 7 -40 1 -44 3 -21 8 40 8
129 1 141 -11z m765 8 c0 -11 -19 -15 -25 -6 -3 5 1 10 9 10 9 0 16 -2 16 -4z
m-7300 -47 c0 -38 -24 -35 -28 4 -2 19 1 27 12 27 11 0 16 -10 16 -31z m6863
1 c4 0 7 -4 7 -10 0 -6 -31 -8 -82 -5 -46 3 -114 8 -152 10 -38 2 -71 7 -75
11 -3 4 62 4 144 0 83 -3 153 -6 158 -6z m-5893 -42 c0 -10 -5 -18 -10 -18
-15 0 -23 27 -16 47 6 15 8 15 16 3 6 -8 10 -23 10 -32z m6575 1 c5 -7 -12 -9
-56 -4 -83 8 -88 15 -11 15 33 0 64 -5 67 -11z m-6570 -148 c4 -65 11 -124 16
-132 6 -11 9 -8 9 9 0 31 35 62 69 62 35 0 66 -34 81 -89 9 -35 21 -302 39
-879 6 -189 14 -298 21 -307 6 -7 11 -28 11 -47 1 -109 -4 -185 -13 -195 -6
-8 -7 -28 -3 -50 4 -21 7 -78 6 -126 -2 -72 1 -92 15 -108 9 -11 15 -21 13
-23 -2 -2 -44 0 -94 4 -79 6 -92 4 -108 -12 -10 -10 -15 -23 -11 -29 4 -7 -1
-10 -12 -7 -11 2 -19 11 -19 20 0 9 -9 24 -20 32 -19 14 -19 15 -1 34 13 16
17 30 12 59 -3 21 -8 225 -11 453 -3 228 -10 548 -15 710 -22 665 -22 740 0
740 4 0 11 -53 15 -119z m-268 -63 c54 -60 56 -86 83 -1108 15 -609 18 -672
29 -683 17 -17 13 -29 -6 -23 -10 3 -72 6 -138 7 -66 1 -124 4 -128 7 -5 2 -1
12 8 22 15 16 16 83 14 696 -3 826 -4 764 2 904 5 125 18 166 59 187 36 18 54
16 77 -9z m1616 -56 c35 -38 45 -97 52 -289 3 -103 8 -208 10 -233 2 -25 7
-189 11 -365 4 -195 11 -328 17 -340 19 -35 21 -57 11 -165 -10 -119 -7 -369
5 -384 6 -7 9 -15 7 -17 -3 -2 -46 -1 -98 3 -51 3 -113 7 -137 7 -42 1 -43 2
-27 20 15 17 17 85 19 857 2 801 3 841 21 874 10 19 24 38 30 42 20 14 63 8
79 -10z m1276 -56 c32 -34 39 -76 45 -286 4 -102 8 -246 11 -320 3 -74 8 -227
11 -340 3 -113 9 -209 14 -213 4 -5 23 -10 41 -12 19 -2 34 -4 34 -5 0 0 19
-3 42 -5 58 -7 109 -31 151 -72 12 -13 22 -27 22 -31 0 -5 9 -17 20 -27 30
-27 51 -77 48 -113 -2 -30 -5 -32 -43 -34 -22 0 -60 0 -85 1 -87 3 -211 2
-219 -3 -12 -8 -4 -262 9 -287 l12 -21 -131 4 c-72 2 -134 7 -137 11 -4 4 0
15 9 25 14 15 16 59 18 323 2 168 0 309 -3 314 -8 16 -8 712 1 810 5 57 4 95
-2 103 -14 18 12 148 36 178 24 31 66 31 96 0z m1156 -40 c13 -13 28 -41 34
-62 5 -22 15 -205 22 -409 6 -203 15 -377 20 -385 6 -11 9 -5 10 20 0 19 5 46
9 60 5 15 8 -19 8 -90 0 -63 4 -288 8 -500 l7 -385 -134 3 c-74 2 -136 6 -138
8 -3 2 5 14 17 27 21 22 21 24 14 477 -4 250 -6 498 -5 550 1 52 1 120 0 150
-5 158 5 419 18 486 7 32 44 74 66 74 11 0 31 -11 44 -24z m782 -332 c-3 -3
-12 -4 -19 -1 -8 3 -5 6 6 6 11 1 17 -2 13 -5z m233 -114 c0 -5 -4 -10 -9 -10
-6 0 -13 5 -16 10 -3 6 1 10 9 10 9 0 16 -4 16 -10z m97 -3 c3 -4 -8 -7 -25
-7 l-32 0 -2 -102 -2 -103 -5 105 c-4 58 -5 107 -4 110 2 7 62 4 70 -3z
m-6482 -27 c-16 -4 -34 -4 -39 -1 -15 7 27 18 49 12 17 -4 15 -6 -10 -11z
m6485 -106 c0 -8 -5 -12 -10 -9 -6 4 -8 11 -5 16 9 14 15 11 15 -7z m-113 -66
c-3 -8 -6 -5 -6 6 -1 11 2 17 5 13 3 -3 4 -12 1 -19z m13 -33 c0 -8 -7 -15
-15 -15 -9 0 -12 6 -9 15 4 8 10 15 15 15 5 0 9 -7 9 -15z m100 0 c0 -8 -7
-15 -16 -15 -14 0 -14 3 -4 15 7 8 14 15 16 15 2 0 4 -7 4 -15z m-50 -5 c0 -5
-10 -10 -22 -10 -19 0 -20 2 -8 10 19 13 30 13 30 0z m-3219 -433 c-10 -9 -11
-8 -5 6 3 10 9 15 12 12 3 -3 0 -11 -7 -18z m-1021 -14 c0 5 6 2 14 -5 8 -7
28 -24 46 -37 51 -39 81 -138 54 -176 -10 -13 -21 -15 -58 -10 -39 6 -43 9
-31 21 12 12 12 18 -1 42 -7 15 -14 35 -14 44 0 9 -4 18 -9 20 -4 2 -10 29
-13 61 -3 32 -1 52 3 45 5 -7 9 -9 9 -5z m1235 -66 c6 1 23 -17 38 -41 22 -35
27 -54 25 -89 -3 -43 -4 -45 -38 -37 -3 0 3 7 13 14 16 12 16 14 2 20 -9 3
-13 2 -10 -4 3 -6 1 -10 -4 -10 -6 0 -11 6 -12 13 0 6 -7 -1 -15 -18 l-14 -30
5 31 c5 26 2 32 -15 37 -12 3 -19 10 -16 16 4 5 2 12 -4 16 -5 3 -10 24 -10
46 0 29 4 39 16 39 9 0 13 5 9 13 -4 6 -1 5 7 -4 7 -9 18 -14 23 -12z m-1982
-497 c28 -22 40 -70 31 -119 l-7 -32 -101 5 c-55 3 -134 5 -173 5 -71 1 -73 2
-73 25 0 14 5 28 10 31 6 3 10 24 10 45 0 36 3 40 33 49 17 5 80 10 138 10 92
1 110 -2 132 -19z m-479 -695 c6 -16 -30 -55 -50 -55 -9 0 -6 12 9 35 25 38
32 42 41 20z m-754 -537 c0 -78 -2 -139 -4 -137 -14 14 -13 279 0 279 2 0 4
-64 4 -142z m-239 -428 c33 -18 21 -30 -28 -30 l-48 0 25 20 c30 23 26 23 51
10z m243 -80 c14 -14 -2 -27 -30 -24 -32 3 -38 9 -30 29 6 16 40 13 60 -5z
m-28 -57 c-10 -10 -19 5 -10 18 6 11 8 11 12 0 2 -7 1 -15 -2 -18z"/>
<path d="M394 4638 c-3 -4 9 -8 27 -8 18 0 29 3 25 7 -10 10 -46 11 -52 1z"/>
<path d="M470 4624 c0 -14 -8 -16 -54 -10 -33 3 -57 2 -61 -4 -6 -10 8 -12
164 -16 46 -1 110 -5 141 -8 62 -7 92 7 40 19 -16 4 -28 12 -27 18 1 7 -10 13
-25 15 -31 4 -39 -14 -10 -21 10 -3 5 -5 -12 -6 -21 -1 -27 3 -22 14 4 11 -2
15 -24 15 -33 0 -41 -16 -12 -23 9 -3 -7 -5 -37 -6 -43 -1 -52 2 -47 14 3 8 1
15 -4 15 -6 0 -10 -7 -10 -16z"/>
<path d="M500 4630 c0 -5 5 -10 10 -10 6 0 10 5 10 10 0 6 -4 10 -10 10 -5 0
-10 -4 -10 -10z"/>
<path d="M0 4622 c0 -4 24 -9 53 -10 37 -1 48 1 37 8 -18 12 -90 13 -90 2z"/>
<path d="M713 4623 c9 -2 25 -2 35 0 9 3 1 5 -18 5 -19 0 -27 -2 -17 -5z"/>
<path d="M793 4623 c9 -2 23 -2 30 0 6 3 -1 5 -18 5 -16 0 -22 -2 -12 -5z"/>
<path d="M850 4621 c0 -5 12 -12 28 -14 22 -3 20 -4 -10 -6 -50 -2 -60 -21
-11 -22 21 -1 68 -3 106 -5 37 -1 67 2 67 7 0 5 -22 9 -49 9 -28 0 -53 5 -56
10 -4 6 8 10 30 10 22 0 34 4 30 10 -8 13 -135 13 -135 1z"/>
<path d="M1010 4620 c0 -5 15 -10 33 -10 24 0 28 3 17 10 -20 13 -50 13 -50 0z"/>
<path d="M6470 4620 c-21 -7 -18 -8 20 -11 25 -1 56 -3 70 -5 119 -12 133 -13
122 -2 -5 5 -36 12 -69 14 -32 2 -71 5 -88 8 -16 2 -41 0 -55 -4z"/>
<path d="M120 4610 c0 -5 14 -10 30 -10 17 0 30 5 30 10 0 6 -13 10 -30 10
-16 0 -30 -4 -30 -10z"/>
<path d="M200 4610 c0 -5 11 -10 25 -10 14 0 25 5 25 10 0 6 -11 10 -25 10
-14 0 -25 -4 -25 -10z"/>
<path d="M295 4610 c-17 -7 -14 -9 13 -9 20 -1 31 3 27 9 -7 12 -13 12 -40 0z"/>
<path d="M6745 4600 c-4 -6 14 -10 46 -10 61 0 61 5 2 14 -24 3 -44 2 -48 -4z"/>
<path d="M6870 4601 c0 -11 21 -19 38 -14 21 8 13 23 -13 23 -14 0 -25 -4 -25
-9z"/>
<path d="M6933 4596 c2 -6 30 -12 63 -13 50 -2 55 -1 34 8 -35 15 -101 18 -97
5z"/>
<path d="M740 4590 c0 -5 16 -10 36 -10 21 0 33 4 29 10 -3 6 -19 10 -36 10
-16 0 -29 -4 -29 -10z"/>
<path d="M19 4581 c19 -12 121 -13 121 -1 0 6 -30 10 -67 10 -43 0 -63 -4 -54
-9z"/>
<path d="M150 4580 c0 -5 16 -10 36 -10 21 0 33 4 29 10 -3 6 -19 10 -36 10
-16 0 -29 -4 -29 -10z"/>
<path d="M251 4581 c-7 -5 16 -11 51 -14 35 -3 67 -1 72 4 6 6 3 9 -10 10 -10
0 -37 2 -60 4 -22 2 -46 0 -53 -4z"/>
<path d="M3930 4581 c0 -5 5 -13 10 -16 6 -3 10 -2 10 4 0 5 -4 13 -10 16 -5
3 -10 2 -10 -4z"/>
<path d="M7075 4580 c3 -5 15 -10 26 -10 10 0 19 5 19 10 0 6 -12 10 -26 10
-14 0 -23 -4 -19 -10z"/>
<path d="M7135 4580 c7 -12 45 -14 45 -2 0 4 -11 9 -26 10 -14 1 -23 -2 -19
-8z"/>
<path d="M7225 4579 c-14 -6 -2 -8 42 -4 38 4 64 2 68 -5 8 -13 86 -9 82 5 -5
13 -166 17 -192 4z"/>
<path d="M404 4569 c-3 -5 25 -9 63 -10 37 0 103 -2 146 -5 51 -4 77 -2 77 5
0 7 -34 11 -92 11 -51 1 -114 2 -141 4 -26 2 -50 0 -53 -5z"/>
<path d="M6548 4573 c7 -3 16 -2 19 1 4 3 -2 6 -13 5 -11 0 -14 -3 -6 -6z"/>
<path d="M6580 4572 c0 -7 16 -11 38 -11 20 1 79 -2 130 -5 60 -4 92 -3 92 4
0 5 -24 10 -53 10 -30 0 -88 3 -130 6 -55 5 -77 4 -77 -4z"/>
<path d="M7430 4566 c0 -9 5 -16 10 -16 6 0 10 4 10 9 0 6 -4 13 -10 16 -5 3
-10 -1 -10 -9z"/>
<path d="M7487 4573 c-22 -6 -12 -23 14 -23 10 0 19 7 19 15 0 15 -2 16 -33 8z"/>
<path d="M700 4559 c0 -5 19 -9 43 -9 23 -1 72 -2 110 -4 37 -1 67 1 67 6 0 4
-21 8 -47 9 -27 0 -76 2 -110 3 -35 2 -63 0 -63 -5z"/>
<path d="M6860 4558 c0 -4 26 -8 57 -8 31 0 53 3 50 6 -9 10 -107 11 -107 2z"/>
<path d="M7555 4560 c-3 -5 1 -10 10 -10 9 0 13 5 10 10 -3 6 -8 10 -10 10 -2
0 -7 -4 -10 -10z"/>
<path d="M7615 4560 c-3 -5 3 -10 14 -10 12 0 21 5 21 10 0 6 -6 10 -14 10 -8
0 -18 -4 -21 -10z"/>
<path d="M7713 4563 c-38 -7 -26 -22 16 -21 29 0 38 4 34 14 -5 14 -10 15 -50
7z"/>
<path d="M0 4551 c0 -4 26 -9 58 -9 40 0 51 2 37 8 -26 11 -95 12 -95 1z"/>
<path d="M130 4550 c-18 -12 -25 -11 150 -16 87 -2 139 0 131 5 -8 5 -65 10
-127 10 -63 1 -119 4 -126 6 -7 3 -20 0 -28 -5z"/>
<path d="M945 4550 c-3 -5 3 -10 15 -10 12 0 18 5 15 10 -3 6 -10 10 -15 10
-5 0 -12 -4 -15 -10z"/>
<path d="M1913 4553 c9 -2 23 -2 30 0 6 3 -1 5 -18 5 -16 0 -22 -2 -12 -5z"/>
<path d="M1980 4550 c8 -5 44 -9 80 -9 48 1 58 3 40 9 -38 12 -139 12 -120 0z"/>
<path d="M6981 4556 c12 -10 59 -15 59 -6 0 5 -14 10 -32 10 -17 0 -29 -2 -27
-4z"/>
<path d="M7070 4549 c0 -5 9 -9 20 -9 11 0 20 2 20 4 0 2 -9 6 -20 9 -11 3
-20 1 -20 -4z"/>
<path d="M7130 4549 c0 -5 11 -9 25 -9 14 0 25 2 25 4 0 2 -11 6 -25 8 -14 3
-25 1 -25 -3z"/>
<path d="M7840 4551 c-23 -6 -24 -7 -5 -15 11 -4 21 -3 23 3 2 7 10 8 22 1 10
-5 26 -7 36 -3 16 6 16 7 -2 14 -23 9 -41 9 -74 0z"/>
<path d="M7970 4550 c-21 -13 -7 -22 25 -14 20 5 23 9 13 15 -16 11 -20 11
-38 -1z"/>
<path d="M2258 4543 c7 -3 16 -2 19 1 4 3 -2 6 -13 5 -11 0 -14 -3 -6 -6z"/>
<path d="M6650 4541 c0 -6 19 -12 43 -12 23 -1 61 -3 85 -4 23 -2 42 1 42 6 0
5 -28 9 -62 9 -35 0 -73 3 -85 6 -14 4 -23 2 -23 -5z"/>
<path d="M7201 4546 c11 -9 119 -15 119 -6 0 6 -27 10 -62 10 -34 0 -59 -2
-57 -4z"/>
<path d="M448 4533 c6 -2 18 -2 25 0 6 3 1 5 -13 5 -14 0 -19 -2 -12 -5z"/>
<path d="M525 4530 c3 -5 17 -10 31 -10 14 0 22 4 19 10 -3 6 -17 10 -31 10
-14 0 -22 -4 -19 -10z"/>
<path d="M596 4531 c-5 -7 2 -11 16 -12 13 0 42 -2 66 -3 23 -2 45 1 48 6 3 4
-10 8 -29 8 -19 0 -48 3 -65 6 -17 4 -32 1 -36 -5z"/>
<path d="M2433 4533 c20 -2 54 -2 75 0 20 2 3 4 -38 4 -41 0 -58 -2 -37 -4z"/>
<path d="M7485 4529 c7 -11 35 -12 35 -1 0 4 -9 8 -20 9 -11 1 -18 -2 -15 -8z"/>
<path d="M8090 4536 c0 -9 30 -14 35 -6 4 6 -3 10 -14 10 -12 0 -21 -2 -21 -4z"/>
<path d="M8160 4530 c0 -5 5 -10 10 -10 6 0 10 5 10 10 0 6 -4 10 -10 10 -5 0
-10 -4 -10 -10z"/>
<path d="M8237 4534 c-3 -3 -3 -12 0 -20 3 -8 0 -14 -7 -14 -6 0 -9 -4 -6 -9
3 -5 15 -7 26 -4 15 4 18 9 10 18 -5 6 -7 14 -4 17 3 3 1 9 -4 12 -5 3 -12 3
-15 0z"/>
<path d="M756 4515 c5 -13 -9 -15 -96 -15 -55 0 -99 -4 -96 -9 3 -4 47 -9 98
-10 50 0 97 -6 102 -11 8 -8 -51 -9 -194 -4 -113 3 -202 3 -198 -1 4 -4 42 -9
85 -11 93 -3 94 -3 68 -13 -11 -4 -110 -3 -219 1 -110 5 -201 6 -204 3 -12
-12 13 -15 154 -20 82 -3 210 -7 284 -10 74 -3 179 -7 233 -10 61 -3 97 -1 97
5 0 6 -10 10 -22 10 -97 2 -245 14 -252 20 -8 8 103 6 352 -4 40 -2 75 1 78 6
3 4 -12 9 -33 10 -21 1 -49 3 -63 4 -14 1 -53 2 -87 3 -35 0 -63 6 -63 11 0 6
15 8 40 4 45 -7 57 11 15 22 -14 3 -25 12 -25 20 0 9 -11 14 -30 14 -22 0 -28
-4 -24 -15z"/>
<path d="M7134 4518 c-3 -4 2 -11 10 -14 19 -7 52 3 42 13 -10 10 -46 11 -52
1z"/>
<path d="M8280 4526 c0 -2 7 -6 15 -10 8 -3 15 -1 15 4 0 6 -7 10 -15 10 -8 0
-15 -2 -15 -4z"/>
<path d="M11 4515 c11 -11 139 -16 139 -6 0 7 -28 11 -72 11 -39 0 -69 -2 -67
-5z"/>
<path d="M165 4510 c3 -5 17 -10 31 -10 14 0 22 4 19 10 -3 6 -17 10 -31 10
-14 0 -22 -4 -19 -10z"/>
<path d="M250 4511 c0 -11 40 -22 53 -14 5 3 3 9 -4 14 -18 11 -49 11 -49 0z"/>
<path d="M338 4510 c-38 -9 -7 -18 66 -19 40 0 65 3 60 8 -11 11 -95 18 -126
11z"/>
<path d="M1140 4510 c0 -5 15 -10 33 -10 24 0 28 3 17 10 -20 13 -50 13 -50 0z"/>
<path d="M2958 4513 c12 -2 30 -2 40 0 9 3 -1 5 -23 4 -22 0 -30 -2 -17 -4z"/>
<path d="M7763 4513 c9 -2 23 -2 30 0 6 3 -1 5 -18 5 -16 0 -22 -2 -12 -5z"/>
<path d="M7815 4510 c3 -5 15 -10 26 -10 10 0 19 5 19 10 0 6 -12 10 -26 10
-14 0 -23 -4 -19 -10z"/>
<path d="M7880 4509 c0 -4 10 -10 23 -12 l22 -4 -22 -2 c-31 -2 -29 -21 2 -21
16 0 25 6 25 15 0 11 11 15 36 15 20 0 33 4 29 10 -7 11 -115 10 -115 -1z"/>
<path d="M8014 4508 c-7 -11 -7 -11 54 -13 29 -1 49 1 45 5 -11 11 -94 17 -99
8z"/>
<path d="M8358 4513 c7 -3 16 -2 19 1 4 3 -2 6 -13 5 -11 0 -14 -3 -6 -6z"/>
<path d="M8475 4510 c27 -12 35 -12 35 0 0 6 -12 10 -27 9 -25 0 -26 -1 -8 -9z"/>
<path d="M8548 4508 c17 -8 26 -8 34 0 9 9 4 12 -22 11 -33 0 -34 -1 -12 -11z"/>
<path d="M485 4500 c-4 -6 9 -10 32 -10 28 0 34 3 23 10 -20 13 -47 13 -55 0z"/>
<path d="M8290 4490 c0 -5 19 -10 42 -10 39 0 40 -1 22 -15 -18 -14 -17 -14
14 -15 35 0 40 10 16 34 -17 18 -94 22 -94 6z"/>
<path d="M0 4479 c0 -5 19 -9 43 -10 23 0 68 -2 100 -5 35 -3 57 -1 57 6 0 5
-24 11 -52 11 -29 1 -74 3 -100 4 -27 1 -48 -1 -48 -6z"/>
<path d="M8409 4481 c7 -5 10 -14 7 -20 -4 -6 0 -12 8 -12 9 -1 28 -2 44 -4
15 -1 69 -3 120 -5 50 -2 92 -7 92 -12 0 -4 -45 -6 -100 -3 -65 4 -100 2 -100
-5 0 -5 24 -11 53 -11 103 -3 102 -3 99 -21 -2 -15 5 -18 48 -18 53 0 69 16
23 23 l-28 4 28 2 c25 1 40 21 16 21 -8 0 -8 5 1 15 11 13 6 15 -33 15 -37 0
-45 3 -41 15 5 12 -4 15 -47 14 -54 -2 -54 -2 -14 -9 29 -5 11 -7 -60 -7 -55
-1 -92 1 -82 4 29 8 19 23 -15 23 -23 0 -29 -3 -19 -9z"/>
<path d="M215 4471 c3 -6 35 -10 70 -10 38 0 63 4 60 10 -4 5 -35 9 -71 9 -38
0 -63 -4 -59 -9z"/>
<path d="M1195 4470 c-4 -6 7 -10 24 -10 17 0 31 4 31 8 0 11 -48 13 -55 2z"/>
<path d="M8685 4470 c-4 -6 6 -10 22 -10 22 0 25 2 13 10 -19 12 -27 12 -35 0z"/>
<path d="M8285 4460 c3 -5 15 -10 26 -10 10 0 19 5 19 10 0 6 -12 10 -26 10
-14 0 -23 -4 -19 -10z"/>
<path d="M17 4438 c17 -8 29 -8 46 0 19 9 17 11 -23 11 -40 0 -42 -2 -23 -11z"/>
<path d="M5180 4420 c0 -5 7 -10 16 -10 8 0 12 5 9 10 -3 6 -10 10 -16 10 -5
0 -9 -4 -9 -10z"/>
<path d="M0 4405 c0 -7 11 -12 28 -11 39 2 39 -18 0 -25 l-33 -6 35 -2 c19 -1
78 -4 130 -7 64 -4 92 -2 85 5 -5 5 -43 11 -82 13 -40 2 -73 6 -73 11 0 8 21
11 75 7 29 -1 37 1 29 9 -16 17 -194 23 -194 6z"/>
<path d="M890 4410 c0 -5 14 -10 31 -10 17 0 28 4 24 10 -3 6 -17 10 -31 10
-13 0 -24 -4 -24 -10z"/>
<path d="M220 4400 c0 -5 17 -10 38 -10 27 0 33 3 22 10 -20 13 -60 13 -60 0z"/>
<path d="M312 4403 c-6 -2 -10 -9 -6 -14 7 -12 51 -12 59 1 3 6 2 10 -4 10 -5
0 -15 2 -23 4 -7 3 -19 2 -26 -1z"/>
<path d="M385 4390 c-4 -6 7 -10 27 -10 25 0 29 3 18 10 -19 13 -37 13 -45 0z"/>
<path d="M466 4391 c-9 -14 -14 -12 67 -16 37 -2 67 0 67 6 0 5 -1 9 -2 10
-43 8 -127 8 -132 0z"/>
<path d="M5673 4393 c9 -2 23 -2 30 0 6 3 -1 5 -18 5 -16 0 -22 -2 -12 -5z"/>
<path d="M5765 4390 c28 -12 55 -12 55 0 0 6 -17 10 -37 9 -31 0 -34 -2 -18
-9z"/>
<path d="M620 4380 c0 -5 13 -10 29 -10 17 0 33 5 36 10 4 6 -8 10 -29 10 -20
0 -36 -4 -36 -10z"/>
<path d="M700 4380 c0 -5 16 -10 36 -10 21 0 33 4 29 10 -3 6 -19 10 -36 10
-16 0 -29 -4 -29 -10z"/>
<path d="M780 4380 c0 -6 17 -10 37 -10 43 0 41 5 -4 13 -19 4 -33 2 -33 -3z"/>
<path d="M867 4384 c-3 -4 -4 -11 -1 -15 7 -12 54 -11 54 1 0 6 -4 10 -9 10
-5 0 -16 2 -23 5 -8 3 -17 3 -21 -1z"/>
<path d="M935 4370 c3 -5 19 -10 36 -10 16 0 29 5 29 10 0 6 -16 10 -36 10
-21 0 -33 -4 -29 -10z"/>
<path d="M1020 4370 c0 -5 17 -10 38 -9 30 0 33 2 17 9 -28 12 -55 12 -55 0z"/>
<path d="M266 4361 c-5 -8 12 -11 56 -12 35 0 77 -2 93 -4 28 -3 216 -9 622
-20 108 -3 174 -1 178 5 4 6 -28 10 -87 11 -51 1 -140 2 -198 4 -392 12 -485
16 -566 21 -63 5 -93 3 -98 -5z"/>
<path d="M0 4330 c0 -5 12 -10 26 -10 14 0 23 4 19 10 -3 6 -15 10 -26 10 -10
0 -19 -4 -19 -10z"/>
<path d="M60 4331 c0 -6 10 -11 23 -12 12 0 64 -2 115 -4 56 -3 92 -1 92 5 0
6 -17 10 -37 11 -21 0 -73 3 -115 5 -52 4 -78 2 -78 -5z"/>
<path d="M310 4320 c0 -5 15 -10 33 -10 24 0 28 3 17 10 -20 13 -50 13 -50 0z"/>
<path d="M393 4318 c-4 -8 -3 -9 97 -13 36 -2 95 -6 132 -9 41 -4 69 -2 73 4
3 5 -2 11 -12 11 -10 1 -38 3 -63 5 -100 8 -222 9 -227 2z"/>
<path d="M714 4301 c8 -12 136 -12 136 0 0 5 -32 9 -71 9 -38 0 -68 -4 -65 -9z"/>
<path d="M870 4300 c0 -5 9 -11 20 -11 11 -1 25 -2 32 -3 6 -1 13 5 16 12 2 8
-8 12 -32 12 -20 0 -36 -4 -36 -10z"/>
<path d="M956 4301 c-4 -6 1 -11 11 -12 10 0 41 -3 70 -5 29 -2 55 1 58 6 4 6
-13 10 -42 10 -26 0 -58 3 -69 6 -12 3 -25 1 -28 -5z"/>
<path d="M0 4290 c0 -6 24 -11 53 -11 28 -1 85 -3 125 -4 39 -2 72 1 72 6 0 5
-6 9 -12 10 -113 7 -238 6 -238 -1z"/>
<path d="M275 4279 c4 -6 21 -9 39 -8 17 2 36 0 41 -3 17 -10 58 -4 63 10 3 9
-16 12 -73 12 -51 0 -74 -3 -70 -11z"/>
<path d="M432 4278 c5 -15 57 -18 61 -3 1 6 -13 11 -32 13 -24 3 -32 0 -29
-10z"/>
<path d="M8710 4250 c0 -5 5 -10 10 -10 6 0 10 5 10 10 0 6 -4 10 -10 10 -5 0
-10 -4 -10 -10z"/>
<path d="M18 4193 c6 -2 18 -2 25 0 6 3 1 5 -13 5 -14 0 -19 -2 -12 -5z"/>
<path d="M6720 3963 c0 -6 -8 -12 -17 -12 -160 0 -246 -3 -236 -9 6 -4 48 -7
92 -6 45 1 81 -2 81 -6 0 -3 44 -7 98 -7 53 -1 160 -4 237 -7 77 -3 223 -8
325 -11 102 -3 214 -8 250 -10 36 -3 137 -7 225 -9 146 -4 158 -3 132 10 -15
8 -38 12 -50 9 -17 -5 -19 -4 -7 4 11 8 6 10 -25 10 -36 -1 -37 -2 -15 -10 15
-5 -34 -7 -129 -4 -130 5 -156 8 -168 23 -9 12 -12 13 -8 2 4 -12 -4 -15 -37
-14 -101 1 -139 4 -135 12 3 4 -7 8 -21 8 -15 1 -21 -1 -14 -3 28 -11 9 -20
-28 -13 -22 4 -40 5 -40 2 0 -2 -7 1 -15 8 -8 7 -15 9 -15 5 0 -4 -8 -1 -17 6
-11 10 -14 10 -9 2 5 -10 -6 -13 -48 -13 -34 0 -56 5 -59 13 -4 9 -7 9 -14 0
-7 -10 -13 -10 -29 2 -23 18 -71 19 -77 3 -3 -10 -7 -10 -18 -2 -8 6 -23 10
-34 7 -46 -9 -159 -3 -167 9 -6 10 -8 10 -8 1z"/>
<path d="M8203 3898 c1 -9 -10 -12 -36 -11 -20 1 -35 -2 -33 -6 3 -4 25 -8 50
-9 25 -1 56 -6 69 -11 14 -5 59 -7 101 -4 61 5 76 9 72 20 -3 8 -1 11 4 8 6
-3 10 -1 10 4 0 6 -9 11 -21 11 -11 0 -18 -3 -16 -7 3 -5 -8 -9 -24 -10 -15
-1 -31 2 -34 7 -4 6 -13 10 -21 10 -8 0 -12 -4 -9 -10 4 -6 -10 -10 -33 -10
-26 0 -42 5 -46 15 -7 18 -37 20 -33 3z"/>
<path d="M7958 3883 c6 -2 18 -2 25 0 6 3 1 5 -13 5 -14 0 -19 -2 -12 -5z"/>
<path d="M8040 3880 c0 -6 15 -9 35 -7 51 6 56 17 7 17 -23 0 -42 -5 -42 -10z"/>
<path d="M8470 3883 c0 -7 -7 -13 -17 -13 -32 0 -5 -11 38 -15 44 -5 56 -5
163 -5 32 -1 63 -3 67 -6 5 -3 9 -3 9 1 0 14 -62 26 -130 25 -41 0 -84 -1 -94
-1 -11 0 -23 6 -27 13 -7 10 -9 10 -9 1z"/>
<path d="M690 3555 l0 -55 34 0 c38 0 46 12 46 71 0 39 0 39 -40 39 l-40 0 0
-55z"/>
<path d="M690 3462 c0 -4 10 -12 23 -17 12 -6 23 -20 25 -32 2 -13 10 -23 18
-23 13 0 14 15 5 73 -1 9 -71 9 -71 -1z"/>
<path d="M7207 3392 c-24 -3 -28 -7 -23 -25 3 -12 6 -35 6 -50 0 -25 3 -28 28
-25 24 3 27 7 30 47 4 50 -2 58 -41 53z"/>
<path d="M257 3324 c-9 -9 -9 -66 -1 -88 4 -11 19 -16 46 -16 l39 0 -3 53 c-3
52 -3 52 -38 55 -20 2 -39 0 -43 -4z"/>
<path d="M382 3273 l3 -58 35 0 35 0 0 55 0 55 -38 3 -38 3 3 -58z"/>
<path d="M7090 3236 c0 -7 3 -34 6 -59 5 -36 11 -47 28 -50 16 -3 15 -5 -7 -6
-27 -1 -27 -1 -21 -58 4 -32 8 -59 9 -61 2 -2 15 0 29 4 l27 6 -5 87 c-7 128
-13 151 -42 151 -14 0 -24 -6 -24 -14z"/>
<path d="M8499 3155 c-5 -50 -4 -63 7 -53 3 3 4 28 2 54 l-3 49 -6 -50z"/>
<path d="M260 3135 l0 -55 40 0 40 0 0 55 0 55 -40 0 -40 0 0 -55z"/>
<path d="M6794 3112 c-7 -4 -11 -26 -10 -49 2 -43 15 -68 23 -45 3 7 10 18 17
25 17 16 26 56 15 63 -5 3 -9 0 -9 -7 0 -8 -5 -6 -12 4 -7 9 -18 13 -24 9z"/>
<path d="M8499 3025 c-5 -50 -4 -63 7 -53 3 3 4 28 2 54 l-3 49 -6 -50z"/>
<path d="M6677 2959 c-3 -13 -1 -19 6 -16 15 5 22 37 9 37 -5 0 -12 -9 -15
-21z"/>
<path d="M6790 2965 c0 -8 5 -15 10 -15 6 0 10 7 10 15 0 8 -4 15 -10 15 -5 0
-10 -7 -10 -15z"/>
<path d="M7889 2963 c0 -5 -2 -16 -4 -25 -2 -10 1 -20 6 -24 5 -3 9 9 9 25 0
17 -2 31 -5 31 -3 0 -5 -3 -6 -7z"/>
<path d="M8502 2910 c0 -19 2 -27 5 -17 2 9 2 25 0 35 -3 9 -5 1 -5 -18z"/>
<path d="M6693 2893 c9 -2 23 -2 30 0 6 3 -1 5 -18 5 -16 0 -22 -2 -12 -5z"/>
<path d="M7890 2804 c0 -8 5 -12 10 -9 6 3 10 10 10 16 0 5 -4 9 -10 9 -5 0
-10 -7 -10 -16z"/>
<path d="M8444 2795 c-1 -16 3 -24 10 -22 16 5 20 47 4 47 -7 0 -14 -11 -14
-25z"/>
<path d="M8502 2785 c0 -16 2 -22 5 -12 2 9 2 23 0 30 -3 6 -5 -1 -5 -18z"/>
<path d="M7980 2775 c0 -8 2 -15 4 -15 2 0 6 7 10 15 3 8 1 15 -4 15 -6 0 -10
-7 -10 -15z"/>
<path d="M8371 2769 c6 -12 8 -26 6 -33 -6 -16 22 -76 35 -76 10 0 98 50 98
55 0 2 -16 -3 -35 -11 -51 -21 -57 -19 -54 26 4 45 -1 52 -36 56 -22 2 -24 0
-14 -17z"/>
<path d="M7895 2560 c-3 -5 -1 -10 4 -10 6 0 11 5 11 10 0 6 -2 10 -4 10 -3 0
-8 -4 -11 -10z"/>
<path d="M419 2526 c-68 -18 -110 -46 -147 -100 -39 -59 -43 -83 -5 -33 16 20
32 36 37 37 5 0 3 -6 -3 -14 -9 -11 -4 -18 24 -35 20 -11 43 -21 51 -21 22 0
29 28 14 56 -19 35 -3 43 23 10 29 -36 61 -32 65 7 4 35 18 35 25 -2 8 -38 37
-49 56 -22 19 30 34 26 26 -7 -8 -38 17 -62 46 -44 10 7 26 12 35 12 13 0 14
-3 4 -15 -7 -8 -18 -15 -26 -15 -18 0 -26 -17 -19 -40 5 -15 15 -20 45 -20 33
0 39 3 45 27 l7 28 13 -25 c8 -14 14 -36 15 -49 0 -13 3 -21 7 -18 13 14 2 99
-18 139 -56 111 -199 174 -320 144z m24 -33 c-7 -2 -21 -2 -30 0 -10 3 -4 5
12 5 17 0 24 -2 18 -5z m114 1 c-3 -3 -12 -4 -19 -1 -8 3 -5 6 6 6 11 1 17 -2
13 -5z m148 -103 c9 -23 1 -20 -24 11 -23 28 -23 29 -3 17 12 -8 24 -20 27
-28z"/>
<path d="M470 2372 c-32 -5 -70 -40 -70 -64 0 -13 8 -18 30 -18 34 0 35 2 18
30 -19 29 1 38 24 10 l20 -24 18 24 c22 30 38 20 22 -14 -13 -29 -7 -36 30
-36 21 0 28 5 28 18 0 44 -63 83 -120 74z"/>
<path d="M286 2355 c-3 -9 -6 -28 -6 -41 0 -23 3 -25 38 -22 48 4 57 37 15 58
-15 8 -31 16 -34 18 -4 1 -9 -4 -13 -13z"/>
<path d="M6781 2339 c-36 -22 -37 -38 -1 -19 12 6 24 9 27 7 2 -3 -11 -13 -30
-22 -19 -9 -45 -27 -58 -41 -24 -25 -24 -26 -4 -41 41 -30 52 -33 65 -17 10
11 10 20 1 41 -17 37 -4 42 22 9 26 -32 57 -27 57 10 0 13 5 24 10 24 6 0 10
-11 10 -24 0 -36 38 -45 61 -15 21 28 35 20 19 -11 -10 -18 -9 -25 3 -37 13
-13 20 -13 51 -2 38 14 44 26 24 48 -10 11 -8 10 10 0 25 -16 51 -65 59 -115
9 -53 27 -42 19 13 -11 83 -76 165 -159 201 -46 20 -147 15 -186 -9z m106 -5
c-9 -9 -67 -11 -67 -2 0 4 17 8 37 8 20 0 34 -3 30 -6z"/>
<path d="M8140 2299 c-19 -11 -26 -17 -15 -14 97 31 191 8 255 -61 71 -77 79
-118 85 -458 3 -143 8 -262 12 -265 3 -4 3 138 -1 314 -6 315 -6 321 -31 370
-56 112 -209 169 -305 114z"/>
<path d="M8189 2280 c-55 -7 -129 -52 -129 -79 0 -24 56 -49 72 -33 9 9 8 18
-1 38 -17 37 -3 44 22 12 17 -21 26 -25 40 -17 9 6 17 21 17 35 0 14 4 22 10
19 6 -3 10 -15 10 -25 0 -26 38 -47 46 -26 3 8 13 17 21 20 13 5 14 1 10 -23
-7 -35 16 -62 35 -43 12 12 48 17 48 7 0 -3 -11 -16 -25 -28 -28 -25 -23 -42
17 -52 39 -10 45 23 16 83 -25 51 -37 64 -82 88 -45 25 -76 30 -127 24z"/>
<path d="M288 2248 c-5 -16 11 -518 17 -535 3 -9 31 -13 95 -13 l90 0 0 130 0
130 29 0 c17 0 31 -6 35 -16 3 -9 6 -67 6 -130 0 -69 4 -114 10 -114 11 0 12
8 11 148 -1 61 3 102 9 102 6 0 10 54 10 139 0 77 4 142 9 145 11 7 21 -28 21
-78 0 -22 2 -37 5 -35 9 9 8 110 -1 118 -5 5 -84 12 -175 15 -130 5 -168 4
-171 -6z"/>
<path d="M670 2180 c0 -53 2 -60 20 -60 17 0 20 7 20 44 0 24 3 51 6 60 5 12
0 16 -20 16 -25 0 -26 -2 -26 -60z"/>
<path d="M6845 2200 c-6 -10 15 -50 26 -50 4 0 14 11 22 24 15 22 15 25 1 30
-23 9 -42 7 -49 -4z"/>
<path d="M7022 2181 c-41 -35 -35 -61 13 -61 36 0 46 13 38 53 -7 38 -13 39
-51 8z"/>
<path d="M6687 2193 c-4 -3 -7 -19 -7 -35 0 -25 3 -28 35 -28 28 0 35 4 35 19
0 11 -10 27 -22 35 -25 18 -32 19 -41 9z"/>
<path d="M132 2160 c0 -19 2 -27 5 -17 2 9 2 25 0 35 -3 9 -5 1 -5 -18z"/>
<path d="M6801 2172 c-17 -32 -13 -42 14 -42 28 0 30 5 11 39 -13 24 -14 24
-25 3z"/>
<path d="M6914 2161 c-14 -34 -10 -41 23 -41 28 0 30 19 5 49 l-17 22 -11 -30z"/>
<path d="M176 2157 c3 -10 9 -15 12 -12 3 3 0 11 -7 18 -10 9 -11 8 -5 -6z"/>
<path d="M8186 2161 c-3 -4 4 -17 15 -27 20 -18 21 -18 35 0 7 10 11 23 8 27
-7 12 -51 12 -58 0z"/>
<path d="M8036 2144 c-9 -23 2 -34 35 -34 33 0 38 16 12 36 -24 18 -40 17 -47
-2z"/>
<path d="M8152 2133 c-12 -22 1 -43 25 -43 16 0 16 8 -1 39 -13 24 -14 24 -24
4z"/>
<path d="M8271 2134 c0 -11 3 -14 6 -6 3 7 2 16 -1 19 -3 4 -6 -2 -5 -13z"/>
<path d="M131 2094 c0 -11 3 -14 6 -6 3 7 2 16 -1 19 -3 4 -6 -2 -5 -13z"/>
<path d="M630 2040 c0 -38 4 -59 10 -55 6 3 10 28 10 55 0 27 -4 52 -10 55 -6
4 -10 -17 -10 -55z"/>
<path d="M670 2034 c0 -52 1 -55 23 -52 12 2 21 6 20 11 -2 4 -3 27 -3 52 0
38 -3 45 -20 45 -18 0 -20 -7 -20 -56z"/>
<path d="M6674 2053 c3 -21 6 -48 6 -60 0 -20 5 -23 35 -23 l35 0 0 60 0 60
-41 0 -42 0 7 -37z"/>
<path d="M6780 2046 c0 -65 7 -76 46 -76 l34 0 0 60 0 60 -40 0 -40 0 0 -44z"/>
<path d="M6883 1834 c5 -142 11 -261 13 -264 3 -3 48 -7 100 -8 82 -3 94 -6
94 -22 0 -10 9 -20 21 -23 12 -3 19 -12 17 -19 -5 -15 -15 -15 -393 -8 -150 3
-239 1 -237 -5 4 -17 42 -22 197 -25 83 -1 170 -4 195 -6 25 -1 86 -3 136 -3
l91 -1 37 -55 c20 -30 38 -55 41 -55 3 0 5 12 5 27 0 14 -3 23 -7 20 -5 -6
-33 36 -33 49 0 14 22 0 30 -18 8 -22 9 -21 9 6 l1 29 298 -7 c163 -3 443 -8
622 -11 179 -3 389 -7 468 -10 113 -3 142 -2 142 9 0 15 -179 22 -805 32 -209
3 -398 7 -420 9 -22 2 -95 4 -162 4 l-122 1 -12 35 c-7 19 -17 35 -21 35 -11
0 -10 -18 2 -41 9 -16 7 -19 -12 -19 -22 0 -23 3 -26 108 -8 306 -17 470 -28
481 -2 3 -60 7 -127 9 l-122 4 8 -258z m227 120 c0 -63 -4 -104 -10 -104 -6 0
-10 44 -10 111 0 71 4 108 10 104 6 -3 10 -52 10 -111z m-3 -211 c-2 -16 -4
-5 -4 22 0 28 2 40 4 28 2 -13 2 -35 0 -50z m0 -130 c-2 -16 -4 -5 -4 22 0 28
2 40 4 28 2 -13 2 -35 0 -50z"/>
<path d="M212 2035 c-2 -19 2 -35 8 -35 5 0 10 16 10 35 0 19 -4 35 -8 35 -4
0 -9 -16 -10 -35z"/>
<path d="M8030 2056 c-3 -2 -3 -32 -2 -65 3 -52 7 -61 23 -61 16 0 19 8 21 48
l1 47 4 -42 c3 -29 9 -43 19 -43 10 0 14 14 14 55 0 46 -3 55 -17 55 -10 0
-27 3 -38 6 -11 3 -23 3 -25 0z"/>
<path d="M8135 2047 c-2 -6 -1 -124 3 -262 l7 -250 47 -3 46 -3 7 103 c4 57 6
128 5 158 -1 30 0 62 1 70 1 8 -2 46 -6 84 -7 65 -6 69 11 63 63 -19 64 -19
64 -4 0 9 4 18 10 22 5 3 12 -16 16 -45 6 -44 9 -50 30 -50 22 0 24 4 24 48 0
26 -4 52 -8 58 -11 17 -252 27 -257 11z"/>
<path d="M132 2025 c0 -16 2 -22 5 -12 2 9 2 23 0 30 -3 6 -5 -1 -5 -18z"/>
<path d="M180 2016 c0 -9 5 -16 10 -16 6 0 10 4 10 9 0 6 -4 13 -10 16 -5 3
-10 -1 -10 -9z"/>
<path d="M214 1938 c5 -77 6 -81 12 -75 12 11 9 110 -3 114 -8 3 -11 -10 -9
-39z"/>
<path d="M138 1898 c-1 -29 0 -82 3 -118 5 -54 6 -45 7 53 2 121 -4 157 -10
65z"/>
<path d="M686 1917 c1 -17 3 -35 4 -39 1 -5 3 -12 4 -18 2 -16 21 -11 20 5 -1
8 -2 31 -3 50 0 21 -6 35 -13 35 -8 0 -12 -12 -12 -33z"/>
<path d="M6680 1895 l0 -55 35 0 35 0 0 55 0 55 -35 0 -35 0 0 -55z"/>
<path d="M6790 1895 c0 -54 0 -55 30 -55 43 0 45 1 46 40 2 59 -5 70 -42 70
l-34 0 0 -55z"/>
<path d="M8024 1906 c-3 -7 -4 -33 -2 -57 l3 -44 40 3 c22 2 42 7 45 12 11 17
-2 100 -15 100 -8 0 -16 -8 -18 -17 -4 -17 -5 -17 -6 0 -1 21 -39 23 -47 3z"/>
<path d="M8354 1858 c12 -76 46 -78 46 -2 0 41 -2 44 -26 44 -26 0 -26 -2 -20
-42z"/>
<path d="M8311 1874 c0 -11 3 -14 6 -6 3 7 2 16 -1 19 -3 4 -6 -2 -5 -13z"/>
<path d="M218 1783 c4 -50 3 -55 -12 -50 -10 4 -15 3 -11 -3 3 -6 14 -10 23
-10 14 0 18 12 20 60 2 46 -1 60 -11 60 -10 0 -13 -13 -9 -57z"/>
<path d="M696 1811 c-4 -6 -6 -31 -5 -56 2 -33 7 -45 18 -45 13 0 15 9 13 48
-4 49 -15 71 -26 53z"/>
<path d="M6687 1813 c-4 -3 -7 -28 -7 -55 l0 -48 40 0 c44 0 48 9 34 79 -5 26
-11 31 -34 31 -14 0 -30 -3 -33 -7z"/>
<path d="M6790 1761 c0 -47 1 -49 33 -54 17 -2 35 -3 40 0 4 2 7 26 7 54 l0
49 -40 0 -40 0 0 -49z"/>
<path d="M8027 1782 c-2 -4 -1 -31 1 -60 l4 -54 37 7 c20 4 37 8 38 9 1 1 4
24 5 51 l3 49 -42 2 c-24 1 -44 -1 -46 -4z"/>
<path d="M8366 1762 c-10 -16 7 -92 20 -92 10 0 14 14 14 50 0 37 -4 50 -14
50 -8 0 -17 -4 -20 -8z"/>
<path d="M2277 1743 c-18 -17 0 -23 76 -24 45 0 102 -4 127 -7 l45 -7 5 -125
c5 -118 6 -125 26 -128 17 -2 26 6 40 35 11 21 24 37 29 36 6 -1 18 -18 28
-37 14 -26 26 -36 43 -36 16 0 24 6 24 18 1 16 37 69 43 61 2 -2 11 -21 21
-41 22 -49 54 -51 76 -6 21 44 32 44 55 0 25 -47 50 -48 73 -3 23 47 35 48 58
4 28 -54 55 -55 78 -2 l19 43 23 -30 c13 -16 24 -35 24 -41 0 -7 11 -13 25
-13 l25 0 0 124 c0 69 4 127 9 130 14 9 41 -4 41 -19 0 -7 6 -18 14 -24 12
-10 15 -7 18 16 l3 28 199 -2 c150 -2 201 -6 208 -15 4 -7 8 -66 8 -130 0
-110 1 -118 20 -118 12 0 25 13 36 35 24 51 33 52 52 6 22 -52 52 -56 73 -9
19 44 33 45 53 3 13 -26 23 -35 41 -35 18 0 25 6 25 18 0 11 9 27 19 36 19 17
20 16 41 -23 25 -51 45 -52 67 -3 l17 37 4 -32 c4 -41 22 -55 64 -51 42 4 51
34 15 47 -16 6 -28 21 -32 40 -9 41 1 54 37 46 22 -5 33 -2 43 12 13 17 14 17
24 -7 7 -20 6 -28 -8 -40 -16 -13 -16 -16 8 -52 30 -46 51 -48 71 -6 21 44 33
44 53 3 16 -34 42 -54 53 -42 3 3 6 61 7 129 2 119 3 123 24 126 17 3 24 -3
29 -22 8 -32 22 -34 26 -3 3 22 4 22 188 22 102 -1 193 -4 203 -8 15 -6 17
-21 17 -126 0 -70 4 -122 10 -126 17 -10 50 5 50 24 0 17 18 41 31 41 4 0 17
-16 29 -35 26 -42 57 -46 66 -10 3 13 12 29 20 36 11 9 18 4 35 -25 27 -47 58
-48 79 -3 18 39 30 39 50 -2 19 -39 54 -42 72 -4 19 38 35 39 55 4 24 -42 60
-42 74 -1 14 40 33 38 54 -6 12 -27 22 -34 38 -32 21 3 22 8 25 126 2 114 4
122 23 122 11 0 23 -10 29 -24 14 -37 30 -41 30 -8 0 38 11 39 235 30 226 -9
460 -6 460 7 0 5 -34 11 -75 12 -117 3 -575 11 -1015 17 -220 4 -418 8 -440
11 -22 2 -242 7 -490 10 -247 3 -488 8 -535 10 -97 5 -448 13 -910 20 -353 5
-624 14 -686 20 -22 3 -44 2 -47 -2z m371 -45 c-3 -7 -15 -13 -28 -13 -13 0
-25 6 -27 13 -3 8 6 12 27 12 21 0 30 -4 28 -12z m137 3 c8 -13 -24 -29 -46
-24 -33 9 -20 33 17 33 13 0 25 -4 29 -9z m125 -10 c0 -12 -21 -19 -42 -13
-29 7 -21 22 12 22 17 0 30 -4 30 -9z m140 0 c0 -16 -20 -23 -46 -17 -36 9
-29 26 11 26 19 0 35 -4 35 -9z m121 -6 c0 -5 -7 -12 -16 -13 -23 -5 -47 6
-40 19 8 13 56 8 56 -6z m684 -6 c10 -15 0 -21 -30 -21 -14 0 -28 2 -31 5 -11
11 7 27 31 27 13 0 27 -5 30 -11z m123 -11 c-3 -7 -15 -13 -28 -13 -13 0 -25
6 -27 13 -3 8 6 12 27 12 21 0 30 -4 28 -12z m125 -3 c-4 -15 -56 -12 -61 3
-3 10 5 13 29 10 19 -2 33 -7 32 -13z m106 6 c15 -10 7 -31 -12 -31 -21 0 -40
17 -33 29 9 13 26 14 45 2z m96 0 c3 -5 1 -13 -5 -16 -15 -9 -43 3 -35 15 8
13 32 13 40 1z m45 -11 c0 -5 -7 -10 -15 -10 -8 0 -15 5 -15 10 0 6 7 10 15
10 8 0 15 -4 15 -10z m118 -2 c-3 -7 -17 -13 -33 -13 -16 0 -30 6 -32 13 -3 8
7 12 32 12 25 0 35 -4 33 -12z m-1829 -35 c16 -58 14 -83 -8 -83 -34 0 -43 23
-30 74 6 25 15 46 20 46 4 0 13 -17 18 -37z m137 -21 c14 -54 7 -67 -31 -58
-29 7 -30 25 -5 90 13 35 21 29 36 -32z m130 1 c17 -68 7 -86 -37 -62 -21 11
-20 38 3 98 11 30 19 22 34 -36z m2210 47 c8 0 14 -4 14 -10 0 -5 -13 -10 -30
-10 -21 0 -30 5 -30 16 0 11 5 14 16 10 9 -3 22 -6 30 -6z m144 -11 c0 -5 -16
-9 -36 -9 -30 0 -34 3 -25 14 12 14 61 10 61 -5z m-2222 -41 c14 -62 5 -77
-34 -59 -21 9 -25 16 -19 34 4 12 9 34 12 50 8 43 27 32 41 -25z m131 -7 c14
-50 5 -67 -29 -56 -20 6 -22 12 -16 52 10 79 24 80 45 4z m2216 50 c3 -5 -3
-12 -13 -16 -22 -6 -52 3 -52 16 0 12 57 12 65 0z m109 3 c22 -9 10 -24 -20
-24 -15 0 -24 6 -24 15 0 16 17 19 44 9z m144 -11 c2 -9 -7 -13 -27 -13 -30 0
-46 11 -34 24 11 11 56 2 61 -11z m-1792 -53 c16 -55 5 -75 -32 -58 -27 12
-29 29 -13 77 15 42 29 35 45 -19z m124 -8 c16 -52 6 -68 -33 -53 -29 11 -32
18 -18 53 5 13 12 32 16 42 7 25 18 12 35 -42z m121 3 c7 -30 9 -58 6 -61 -3
-4 -18 -4 -32 0 -18 5 -25 13 -25 30 0 30 20 86 30 86 5 0 14 -25 21 -55z
m118 1 c6 -25 11 -50 11 -55 0 -14 -47 -14 -55 0 -8 12 14 99 25 99 4 0 13
-20 19 -44z m86 24 c0 -7 -6 -15 -12 -17 -8 -3 -13 4 -13 17 0 13 5 20 13 18
6 -3 12 -11 12 -18z m159 -32 c18 -61 10 -77 -30 -59 -21 9 -25 16 -20 36 9
35 25 75 30 75 2 0 11 -24 20 -52z m664 -15 c14 -52 6 -69 -27 -58 -23 7 -27
37 -11 79 14 38 24 32 38 -21z m116 30 c3 -10 8 -35 12 -55 5 -33 4 -38 -14
-38 -34 0 -45 23 -31 69 13 44 24 52 33 24z m130 0 c3 -10 8 -35 12 -55 6 -36
5 -38 -19 -38 -35 0 -41 14 -27 66 13 46 25 56 34 27z m134 -40 c16 -57 5 -74
-32 -49 -21 13 -24 20 -17 39 5 12 12 30 15 40 9 29 21 19 34 -30z m127 -15
c8 -52 -3 -61 -39 -35 -14 10 -15 18 -8 37 6 14 13 34 17 44 9 29 22 8 30 -46z"/>
<path d="M140 1691 c0 -11 4 -21 9 -21 18 0 21 18 6 30 -13 10 -15 9 -15 -9z"/>
<path d="M6680 1630 l0 -50 40 0 40 0 0 50 0 50 -40 0 -40 0 0 -50z"/>
<path d="M6792 1628 l3 -53 35 0 35 0 3 53 3 52 -41 0 -41 0 3 -52z"/>
<path d="M2180 1626 c0 -19 4 -37 9 -40 10 -6 24 52 15 65 -12 20 -24 7 -24
-25z"/>
<path d="M8030 1601 c0 -57 2 -61 23 -61 57 0 67 9 67 61 0 47 -1 49 -29 49
-16 0 -36 3 -45 6 -14 5 -16 -3 -16 -55z"/>
<path d="M640 1640 c0 -5 5 -10 10 -10 6 0 10 5 10 10 0 6 -4 10 -10 10 -5 0
-10 -4 -10 -10z"/>
<path d="M8368 1628 c-7 -20 12 -79 22 -73 16 10 12 85 -4 85 -8 0 -16 -6 -18
-12z"/>
<path d="M0 1615 c0 -9 5 -15 11 -13 14 5 14 21 0 26 -6 2 -11 -4 -11 -13z"/>
<path d="M8411 1574 c0 -11 3 -14 6 -6 3 7 2 16 -1 19 -3 4 -6 -2 -5 -13z"/>
<path d="M5771 1524 c0 -11 3 -14 6 -6 3 7 2 16 -1 19 -3 4 -6 -2 -5 -13z"/>
<path d="M5772 1410 c0 -14 2 -19 5 -12 2 6 2 18 0 25 -3 6 -5 1 -5 -13z"/>
<path d="M5760 1300 c0 -16 4 -30 8 -30 5 0 7 14 4 30 -2 17 -6 30 -8 30 -2 0
-4 -13 -4 -30z"/>
<path d="M2230 1282 c0 -17 97 -21 927 -38 172 -3 273 -1 277 5 4 5 3 12 -1
14 -8 5 -294 12 -865 23 -232 5 -338 3 -338 -4z"/>
<path d="M3605 1252 c6 -6 139 -13 335 -16 179 -3 427 -9 553 -12 168 -5 227
-4 227 5 0 6 -18 12 -42 12 -24 1 -54 3 -68 4 -14 1 -248 5 -520 9 -331 5
-492 4 -485 -2z"/>
<path d="M4876 1232 c-8 -14 165 -21 727 -28 368 -5 497 -4 497 5 0 7 -38 12
-117 13 -65 1 -136 3 -158 4 -216 9 -944 14 -949 6z"/>
<path d="M6243 1207 c5 -15 347 -23 347 -8 0 12 -72 18 -228 19 -92 1 -122 -2
-119 -11z"/>
<path d="M0 1191 c0 -11 26 -22 34 -14 12 12 5 23 -14 23 -11 0 -20 -4 -20 -9z"/>
<path d="M2283 1192 c-44 -3 -53 -6 -53 -21 0 -26 22 -28 370 -31 168 -2 330
-4 360 -5 30 -1 74 -3 98 -4 l42 -1 0 -125 c0 -112 2 -125 18 -126 9 -1 191
-4 404 -8 212 -3 390 -10 395 -14 4 -5 -6 -18 -22 -30 -55 -39 -112 -104 -138
-160 -46 -95 -49 -131 -42 -409 l8 -258 443 0 444 0 1 58 c4 312 0 464 -15
514 -23 78 -69 151 -123 197 -27 22 -61 51 -78 65 l-30 26 174 -5 c222 -5 731
-8 735 -3 2 1 -1 54 -6 116 -6 62 -8 116 -5 118 5 6 251 5 512 -2 77 -1 179
-3 226 -3 l87 -1 6 -35 c3 -19 9 -51 12 -71 7 -41 34 -44 44 -4 4 14 19 45 34
68 l27 43 172 -6 c95 -4 228 -8 297 -10 113 -4 127 -6 142 -26 10 -11 16 -25
13 -29 -3 -4 -65 -6 -138 -3 -122 5 -135 4 -141 -13 -4 -9 -3 -21 2 -26 11
-11 118 -17 338 -17 l171 -1 -5 -32 c-3 -18 -1 -30 3 -26 5 4 14 3 22 -3 10
-9 13 -8 13 3 0 8 10 23 22 34 l22 19 -16 -26 c-11 -18 -13 -30 -6 -43 9 -16
11 -16 28 -1 10 9 21 12 24 7 3 -6 -1 -12 -9 -16 -8 -3 -15 -15 -15 -26 0 -20
-5 -20 -235 -20 -249 0 -254 -1 -220 -46 8 -10 15 -33 15 -51 0 -51 9 -63 46
-63 33 0 34 1 34 39 0 80 25 97 36 24 7 -52 16 -63 52 -63 19 0 22 5 22 38 0
44 9 82 20 82 4 0 10 -27 14 -60 l7 -60 42 -1 c23 -1 53 -4 67 -8 24 -7 24 -8
5 -18 -15 -8 -32 -8 -63 0 -45 12 -54 8 -56 -23 -1 -28 -20 -27 -26 2 -5 18
-14 24 -42 26 -37 3 -37 3 -40 -40 -2 -30 -7 -43 -18 -43 -10 0 -16 13 -18 43
-3 41 -4 42 -38 42 l-34 0 0 -63 c0 -50 -4 -68 -20 -85 -12 -12 -25 -22 -30
-22 -6 0 -10 -7 -10 -15 0 -8 -5 -15 -10 -15 -6 0 -16 -11 -22 -25 -6 -14 -19
-25 -27 -24 -9 0 -26 -2 -38 -6 -21 -7 -22 -12 -17 -60 4 -34 3 -55 -5 -59 -7
-5 -11 -52 -11 -137 l0 -129 33 0 c26 1 29 2 15 11 -22 12 -24 31 -3 23 8 -4
15 -1 15 5 0 6 -4 11 -9 11 -5 0 -7 10 -4 22 4 19 3 20 -6 8 -17 -24 -13 -2 5
26 16 23 16 24 -2 18 -14 -5 -16 -4 -8 5 7 8 8 27 4 52 -6 30 -4 39 7 39 22 0
28 31 9 42 -23 13 -13 54 19 82 12 12 26 30 29 42 4 11 18 27 31 34 14 7 25
17 25 22 0 4 7 8 15 8 9 0 15 -9 15 -24 0 -18 7 -25 27 -29 16 -3 31 -3 35 0
5 2 8 31 8 65 0 51 2 59 16 54 9 -4 23 -1 31 5 7 7 16 9 19 7 3 -3 21 -2 40 2
35 8 104 -6 104 -22 0 -4 -11 -8 -25 -8 -18 0 -28 -7 -35 -26 -6 -14 -8 -30
-4 -35 8 -14 -7 -52 -17 -42 -9 9 -17 44 -18 81 -1 18 -7 22 -37 22 l-35 0 2
-57 c3 -82 -17 -133 -35 -88 -3 9 -19 15 -41 15 l-35 0 0 -53 c0 -50 -20 -109
-40 -122 -15 -9 -40 -67 -40 -92 0 -12 -4 -23 -10 -23 -5 0 -10 -18 -10 -40 0
-33 3 -40 20 -40 22 0 28 25 8 33 -10 3 -9 9 3 22 15 16 17 14 23 -20 7 -35 8
-36 49 -33 41 3 42 4 42 38 0 32 -3 35 -32 38 -43 4 -58 24 -42 54 17 33 18
33 32 14 7 -9 26 -18 42 -19 l30 -2 1 63 c1 34 4 66 8 70 4 4 29 7 54 7 41 0
47 3 50 23 4 26 32 30 32 4 0 -36 -29 -62 -71 -62 l-39 0 0 -47 c0 -60 24 -87
58 -65 12 8 22 24 22 38 0 12 5 26 11 30 14 8 29 -14 29 -43 0 -16 6 -23 19
-23 25 0 36 -17 22 -34 -9 -10 -7 -15 9 -19 12 -3 20 -13 20 -26 0 -18 3 -19
26 -11 23 9 26 8 22 -7 -4 -14 2 -18 23 -20 24 -2 28 1 26 20 -1 16 4 22 21
23 20 1 23 -2 18 -22 -5 -17 -2 -24 9 -24 8 0 15 7 15 15 0 8 6 15 14 15 8 0
21 2 28 5 8 3 24 -4 36 -15 21 -20 30 -20 634 -18 538 3 608 5 573 17 -22 8
-43 20 -48 27 -4 7 -14 11 -22 8 -8 -4 -15 -1 -15 6 0 21 -33 39 -62 33 -25
-5 -28 -2 -28 19 0 34 10 41 31 22 9 -8 32 -17 51 -19 18 -2 44 -6 58 -9 16
-4 31 1 47 16 l22 21 7 -42 c6 -39 24 -58 24 -26 0 20 20 19 36 -2 12 -17 13
-16 14 4 0 20 -6 29 -44 60 -19 16 -23 347 -5 387 10 20 10 29 1 38 -7 7 -12
20 -12 30 0 15 4 16 25 8 25 -10 30 -4 19 23 -3 8 -13 13 -22 10 -14 -3 -17 5
-19 53 l-1 56 28 -4 c19 -3 31 1 35 10 9 24 6 30 -26 41 -38 13 -82 15 -75 2
3 -4 -15 -3 -39 2 -33 8 -45 15 -45 29 0 22 16 24 24 2 5 -14 10 -13 40 5 18
12 40 21 49 21 23 0 31 32 11 47 -10 7 -15 15 -12 18 3 3 53 6 112 7 102 1
106 2 106 23 0 22 -1 22 -272 30 -150 4 -277 10 -283 13 -12 7 -45 7 -65 -1
-8 -4 -50 -8 -93 -10 -57 -3 -83 -9 -100 -23 -17 -15 -19 -15 -8 -2 7 9 10 21
8 25 -8 13 -557 17 -557 4 0 -14 -27 -14 -32 -1 -2 6 -27 11 -56 11 -28 1 -52
6 -52 10 0 5 -11 7 -24 3 -45 -11 -91 -10 -119 3 -15 8 -32 11 -37 8 -5 -3
-11 -1 -15 5 -4 6 -11 8 -16 5 -5 -4 -9 1 -9 9 0 13 16 16 98 17 53 1 100 1
105 0 4 -1 175 -3 380 -6 320 -5 592 -12 592 -15 0 -1 125 -2 278 -3 202 -1
277 1 277 9 0 8 -56 14 -182 18 -172 5 -340 8 -1243 21 -606 9 -747 15 -734
31 13 16 26 15 -201 16 -78 0 -147 -4 -163 -11 -39 -15 -77 -14 -97 4 -14 13
-84 17 -451 23 -579 9 -774 8 -832 -6 -39 -9 -55 -9 -81 2 -59 24 -1110 47
-1170 25 -32 -12 -38 -11 -46 1 -7 10 -10 11 -10 3 0 -17 -25 -16 -75 1 -31
11 -149 16 -510 21 -258 4 -499 8 -535 9 -36 0 -89 0 -117 -2z m1055 -94 c4
-32 -13 -38 -21 -8 -3 12 -14 20 -26 20 -19 0 -21 -6 -21 -64 0 -36 5 -68 10
-71 20 -13 9 -25 -23 -25 -42 0 -50 8 -31 28 13 12 14 27 9 71 -4 31 -9 59
-11 63 -7 11 -34 -3 -34 -18 0 -8 -4 -14 -10 -14 -13 0 -13 47 0 52 5 2 42 1
82 -2 71 -5 73 -6 76 -32z m85 -7 c-6 -42 -5 -43 62 -53 14 -2 21 -12 23 -33
2 -17 8 -36 14 -42 8 -10 1 -13 -33 -13 -33 0 -40 3 -31 12 7 7 12 22 12 35 0
18 -6 23 -26 23 -25 0 -26 -2 -21 -35 6 -34 5 -35 -29 -35 -33 0 -45 12 -24
25 6 3 10 33 10 65 0 32 -4 62 -10 65 -21 13 -9 25 24 25 34 0 34 0 29 -39z
m237 29 c18 0 44 -52 33 -64 -11 -11 -20 -6 -31 19 -8 17 -20 25 -37 25 -20 0
-25 -5 -25 -25 0 -16 6 -25 15 -25 8 0 15 5 15 11 0 5 5 7 10 4 13 -8 13 -62
1 -70 -5 -3 -12 -1 -16 5 -11 18 -26 11 -23 -12 4 -32 23 -33 51 -2 27 28 42
20 29 -17 -7 -18 -16 -22 -55 -21 -94 1 -91 1 -77 17 9 11 11 39 8 91 l-5 76
45 -6 c25 -3 53 -6 62 -6z m410 -20 c0 -5 -4 -10 -10 -10 -6 0 -10 -27 -10
-62 0 -43 -5 -67 -17 -80 -34 -37 -103 -11 -103 39 0 33 32 27 40 -7 3 -14 12
-25 20 -25 18 0 27 112 11 128 -20 20 -11 27 29 27 22 0 40 -4 40 -10z m80 1
c0 -6 -4 -13 -10 -16 -13 -8 -13 -81 0 -106 12 -21 40 -25 58 -7 15 15 16 104
2 113 -22 13 2 22 62 23 90 2 116 -5 133 -38 39 -75 1 -140 -82 -140 l-48 0 0
77 c0 63 -3 78 -15 78 -11 0 -16 -16 -20 -63 -5 -64 -13 -76 -58 -88 -28 -8
-70 19 -76 49 -3 12 -7 46 -9 75 l-4 52 33 0 c19 0 34 -4 34 -9z m323 2 c4 -3
2 -12 -4 -19 -7 -9 -10 -42 -7 -84 4 -70 3 -70 -22 -70 -25 0 -26 0 -22 70 3
42 0 75 -7 84 -14 17 -4 26 29 26 15 0 30 -3 33 -7z m226 -9 c2 -2 -1 -9 -6
-16 -12 -16 -2 -133 12 -133 6 0 19 19 30 43 20 43 35 54 35 27 0 -8 9 -15 20
-15 16 0 19 5 14 29 -12 58 16 43 46 -24 39 -88 55 -82 55 18 l0 76 103 -1
c87 0 102 -2 98 -15 -3 -8 -1 -23 5 -34 8 -17 13 -18 25 -8 8 7 13 21 12 33
-2 16 3 22 25 24 15 2 27 1 27 -2 0 -4 -14 -25 -31 -49 -26 -36 -30 -49 -26
-85 5 -42 4 -43 -22 -40 -23 3 -26 7 -23 35 2 21 -6 48 -23 78 -31 52 -45 57
-45 16 0 -16 -7 -34 -15 -41 -9 -7 -12 -16 -7 -19 11 -8 42 -54 42 -63 0 -5
-9 -8 -20 -8 -13 0 -26 12 -37 35 -22 46 -43 53 -43 15 0 -17 5 -30 11 -30 5
0 7 -5 4 -10 -4 -6 -30 -9 -63 -6 -31 3 -62 5 -68 5 -6 1 -10 11 -10 24 1 19
-4 22 -34 22 -30 0 -35 -3 -34 -22 0 -19 -5 -23 -30 -24 -17 -1 -44 -2 -59 -3
-29 -3 -45 8 -27 19 13 8 13 115 0 135 -8 13 -11 11 -16 -7 -7 -27 -17 -29
-34 -8 -15 18 -51 20 -68 3 -15 -15 -16 -72 -2 -99 13 -23 43 -25 60 -4 14 17
40 20 40 6 0 -17 -44 -41 -76 -41 -39 0 -64 27 -70 77 -6 47 13 85 46 93 24 6
171 1 179 -6z m2241 -44 c0 -13 -11 -13 -30 0 -12 8 -11 10 8 10 12 0 22 -4
22 -10z m263 -135 c-6 -16 -16 -19 -26 -8 -9 8 13 34 24 28 4 -3 6 -12 2 -20z
m307 18 c0 -5 -5 -15 -10 -23 -8 -12 -10 -11 -10 8 0 12 5 22 10 22 6 0 10 -3
10 -7z m127 -15 c-3 -8 -6 -5 -6 6 -1 11 2 17 5 13 3 -3 4 -12 1 -19z m225 5
c19 -17 25 -53 8 -53 -5 0 -10 -12 -10 -26 0 -15 -4 -23 -10 -19 -6 4 -9 18
-8 32 2 14 -3 28 -9 30 -8 3 -13 -4 -13 -19 0 -13 -4 -28 -9 -34 -5 -5 -11
-18 -13 -29 -3 -16 -6 -13 -20 15 -10 19 -18 29 -18 23 0 -22 -20 -14 -30 12
-5 14 -13 25 -17 24 -26 -4 -53 15 -53 37 0 24 2 24 92 24 71 0 95 -4 110 -17z
m165 -33 c-8 -20 -15 -26 -21 -20 -7 7 -6 17 2 30 7 12 8 20 2 20 -5 0 -10 5
-10 10 0 7 6 7 19 0 17 -8 18 -14 8 -40z m63 19 c0 -5 -4 -9 -10 -9 -5 0 -10
7 -10 16 0 8 5 12 10 9 6 -3 10 -10 10 -16z m272 -2 c-27 -29 -28 -41 -2 -34
11 3 18 1 14 -4 -8 -14 -64 -11 -65 4 0 6 -2 8 -5 2 -2 -5 -21 -10 -41 -9 -27
1 -39 6 -41 18 -8 38 4 44 84 45 l77 1 -21 -23z m138 15 c0 -15 -11 -21 -27
-15 -12 5 -12 7 -1 14 17 11 28 11 28 1z m-550 -17 c0 -8 -4 -15 -10 -15 -5 0
-10 7 -10 15 0 8 5 15 10 15 6 0 10 -7 10 -15z m500 1 c0 -8 -5 -18 -11 -22
-14 -8 -33 11 -25 25 10 16 36 13 36 -3z m-1127 -24 c-2 -7 15 -11 43 -10 24
0 47 -2 50 -4 7 -8 -7 -38 -16 -33 -4 3 -13 -2 -20 -10 -19 -23 -32 -18 -19 8
11 19 10 21 -3 9 -14 -11 -19 -9 -37 14 -24 30 -27 48 -8 41 6 -2 11 -9 10
-15z m-78 -27 c0 -10 -6 -20 -12 -22 -8 -3 -13 5 -13 22 0 17 5 25 13 23 6 -3
12 -13 12 -23z m665 -35 c0 -5 -4 -10 -10 -10 -5 0 -10 5 -10 10 0 6 5 10 10
10 6 0 10 -4 10 -10z m110 0 c0 -5 -4 -10 -10 -10 -5 0 -10 5 -10 10 0 6 5 10
10 10 6 0 10 -4 10 -10z m-725 -20 c3 -5 1 -10 -4 -10 -6 0 -11 5 -11 10 0 6
2 10 4 10 3 0 8 -4 11 -10z m-98 -51 c-3 -10 -1 -22 4 -25 5 -3 8 0 7 7 -2 6
3 14 11 16 10 4 12 -2 6 -28 -9 -44 -9 -44 -34 -22 -29 24 -28 94 1 77 5 -4 8
-15 5 -25z m-157 -30 c0 -18 -5 -29 -14 -29 -19 0 -25 20 -15 48 11 30 29 19
29 -19z m800 37 c0 -11 -19 -15 -25 -6 -3 5 1 10 9 10 9 0 16 -2 16 -4z m-690
-31 c0 -15 -6 -25 -14 -25 -19 0 -28 14 -20 34 10 25 34 19 34 -9z m150 5 c0
-5 -4 -10 -10 -10 -5 0 -10 5 -10 10 0 6 5 10 10 10 6 0 10 -4 10 -10z m1200
-11 c0 -6 -4 -7 -10 -4 -5 3 -10 11 -10 16 0 6 5 7 10 4 6 -3 10 -11 10 -16z
m-1212 -32 c2 -12 -3 -17 -17 -17 -12 0 -21 6 -21 13 0 31 32 34 38 4z m142 7
c0 -8 -4 -12 -10 -9 -5 3 -10 10 -10 16 0 5 5 9 10 9 6 0 10 -7 10 -16z m248
-2 c2 -7 -3 -12 -12 -12 -9 0 -16 7 -16 16 0 17 22 14 28 -4z m142 -24 c0 -12
-14 -10 -35 5 -10 8 -15 19 -11 26 6 9 13 8 27 -5 10 -9 19 -21 19 -26z m570
4 c0 -4 -5 -13 -12 -20 -9 -9 -7 -12 13 -14 13 0 34 0 47 1 12 1 22 -3 22 -9
0 -9 -23 -14 -58 -13 -10 1 -13 -8 -10 -28 3 -17 1 -32 -4 -35 -4 -3 -8 -20
-8 -37 l-1 -32 -14 25 c-8 15 -10 29 -4 35 12 12 12 35 -1 35 -5 0 -12 -11
-16 -25 -5 -18 -13 -25 -32 -25 -24 0 -24 1 -9 18 10 10 17 24 17 30 0 6 7 15
16 20 11 6 13 12 6 16 -6 3 -14 2 -17 -4 -5 -8 -11 -8 -20 0 -10 8 -14 1 -19
-30 -5 -29 -10 -38 -21 -34 -8 4 -15 17 -15 31 0 13 -5 33 -10 44 -10 17 -7
19 24 19 19 0 37 6 40 13 5 10 7 10 12 0 9 -20 41 -15 47 7 5 19 27 29 27 12z
m-1247 -50 c-22 -5 -27 6 -12 24 12 15 14 14 20 -3 4 -12 1 -19 -8 -21z m337
22 c0 -8 -4 -12 -10 -9 -5 3 -10 10 -10 16 0 5 5 9 10 9 6 0 10 -7 10 -16z
m300 6 c0 -5 -5 -10 -11 -10 -5 0 -7 5 -4 10 3 6 8 10 11 10 2 0 4 -4 4 -10z
m135 0 c3 -5 -1 -10 -10 -10 -9 0 -13 5 -10 10 3 6 8 10 10 10 2 0 7 -4 10
-10z m580 -49 c8 -13 16 -391 9 -413 -8 -25 -23 -22 -34 7 -5 14 -15 25 -21
25 -8 0 -7 6 2 18 13 14 15 46 10 105 -1 11 -31 8 -31 -4 0 -6 -7 -4 -15 5
-21 20 -19 23 14 31 27 6 29 10 33 57 2 42 0 52 -14 56 -24 6 -23 22 1 22 17
0 19 6 16 43 -2 23 -1 45 2 50 6 10 21 9 28 -2z m-538 -23 c-3 -8 -6 -5 -6 6
-1 11 2 17 5 13 3 -3 4 -12 1 -19z m150 -4 c-9 -9 -28 6 -21 18 4 6 10 6 17
-1 6 -6 8 -13 4 -17z m73 16 c0 -5 -5 -10 -11 -10 -5 0 -7 5 -4 10 3 6 8 10
11 10 2 0 4 -4 4 -10z m-1143 -56 c-6 -31 12 -104 25 -104 5 0 7 -4 4 -9 -3
-4 -17 -6 -30 -4 -24 5 -25 8 -22 72 5 77 3 71 17 71 7 0 9 -11 6 -26z m453
-64 c0 -5 -5 -10 -11 -10 -5 0 -7 5 -4 10 3 6 8 10 11 10 2 0 4 -4 4 -10z
m818 -12 c6 -6 12 -15 12 -20 0 -15 29 -40 38 -34 5 3 17 -29 27 -71 17 -71
17 -77 2 -88 -10 -7 -17 -20 -17 -31 0 -13 -3 -15 -11 -7 -8 8 -7 24 5 59 11
32 13 51 6 58 -5 5 -10 20 -10 32 0 14 -8 24 -21 27 -11 3 -23 15 -26 26 -6
24 -28 28 -37 6 -3 -8 -1 -15 4 -15 6 0 10 -12 10 -26 0 -16 -4 -23 -11 -18
-6 3 -15 1 -19 -7 -7 -10 -14 -11 -37 0 l-28 13 28 20 c23 17 27 25 22 49 -4
16 -4 33 0 39 7 11 41 4 63 -12z m82 -18 c0 -22 -7 -25 -29 -11 -16 10 -6 31
15 31 8 0 14 -9 14 -20z m-1293 -12 c-3 -8 -6 -5 -6 6 -1 11 2 17 5 13 3 -3 4
-12 1 -19z m-127 2 c0 -5 -2 -10 -4 -10 -3 0 -8 5 -11 10 -3 6 -1 10 4 10 6 0
11 -4 11 -10z m640 -10 c0 -5 -4 -10 -10 -10 -5 0 -10 5 -10 10 0 6 5 10 10
10 6 0 10 -4 10 -10z m563 -13 c4 3 9 -2 13 -11 4 -9 4 -19 2 -22 -7 -6 -58
17 -58 26 0 14 14 19 25 10 7 -5 15 -7 18 -3z m157 -52 c0 -8 -4 -15 -10 -15
-5 0 -10 7 -10 15 0 8 5 15 10 15 6 0 10 -7 10 -15z m-1024 -62 c-6 -6 -36 9
-36 18 0 5 9 4 20 -3 10 -7 18 -14 16 -15z m984 -13 c0 -5 -7 -10 -15 -10 -8
0 -15 -4 -15 -10 0 -5 -7 -10 -15 -10 -23 0 -18 19 8 30 30 12 37 12 37 0z
m-1231 -44 c-5 -6 -9 -24 -9 -40 0 -17 -4 -37 -9 -45 -15 -23 -31 -2 -31 40 0
32 -3 39 -20 39 -12 0 -20 -7 -21 -17 0 -15 -2 -15 -9 2 -13 30 -12 35 8 35 9
0 28 6 42 13 21 12 27 11 41 -2 10 -10 13 -20 8 -25z m245 8 c3 -8 2 -12 -4
-9 -6 3 -10 10 -10 16 0 14 7 11 14 -7z m1123 -6 c-3 -8 -6 -5 -6 6 -1 11 2
17 5 13 3 -3 4 -12 1 -19z m-247 8 c0 -3 -4 -8 -10 -11 -5 -3 -10 -1 -10 4 0
6 5 11 10 11 6 0 10 -2 10 -4z m117 -18 c-3 -8 -6 -5 -6 6 -1 11 2 17 5 13 3
-3 4 -12 1 -19z m-412 -58 c-3 -5 -12 -7 -20 -3 -21 7 -19 13 6 13 11 0 18 -4
14 -10z m-598 -86 c-2 -3 -23 -2 -46 2 -49 8 -46 20 5 15 23 -2 34 2 35 11 1
7 3 5 6 -5 3 -10 3 -21 0 -23z m987 11 c3 -8 1 -15 -4 -15 -6 0 -10 7 -10 15
0 8 2 15 4 15 2 0 6 -7 10 -15z m-790 -18 c10 -8 16 -22 14 -33 -3 -15 -11
-18 -38 -16 -41 3 -65 24 -57 46 8 20 56 21 81 3z m-3454 -7 c0 -5 -9 -10 -21
-10 -11 0 -17 5 -14 10 3 6 13 10 21 10 8 0 14 -4 14 -10z m3720 0 c0 -5 -5
-10 -11 -10 -5 0 -7 5 -4 10 3 6 8 10 11 10 2 0 4 -4 4 -10z"/>
<path d="M4310 1015 c0 -48 4 -65 13 -65 24 0 47 35 47 71 0 39 -15 59 -42 59
-15 0 -18 -9 -18 -65z"/>
<path d="M4950 1050 c0 -32 19 -40 39 -16 15 18 3 46 -20 46 -14 0 -19 -7 -19
-30z"/>
<path d="M0 1096 c0 -23 22 -41 34 -29 3 4 6 17 6 30 0 16 -6 23 -20 23 -14 0
-20 -7 -20 -24z"/>
<path d="M8552 880 c1 -19 6 -30 16 -30 8 0 12 6 9 15 -4 8 -2 17 3 20 6 4 10
-3 10 -15 0 -15 8 -22 30 -26 17 -4 30 -10 30 -15 0 -5 6 -9 14 -9 8 0 17 -8
20 -17 5 -13 9 -14 19 -4 9 10 5 18 -23 41 -19 16 -40 30 -45 30 -6 0 -16 9
-23 20 -7 11 -23 20 -36 20 -21 0 -25 -5 -24 -30z"/>
<path d="M2798 865 c-121 -30 -211 -102 -264 -210 l-29 -60 -2 -239 c-2 -202
-4 -241 -18 -256 -15 -16 -14 -18 1 -24 13 -5 15 -14 11 -41 l-6 -35 466 0
c460 0 465 0 442 19 -20 16 -25 17 -32 5 -5 -8 -12 -12 -17 -9 -10 6 -2 37 13
46 5 4 1 15 -10 26 -18 18 -20 36 -21 226 -2 261 -7 284 -79 388 -89 128 -299
204 -455 164z m332 -415 c0 -11 -4 -20 -10 -20 -5 0 -10 9 -10 20 0 11 5 20
10 20 6 0 10 -9 10 -20z m20 -139 c0 -5 -9 -7 -20 -4 -11 3 -20 7 -20 9 0 2 9
4 20 4 11 0 20 -4 20 -9z m-5 -119 c-8 -8 -25 10 -19 20 4 6 9 5 15 -3 4 -7 6
-15 4 -17z m3 -57 c1 -19 -3 -35 -9 -35 -6 0 -8 10 -5 23 3 12 3 16 0 10 -3
-7 -10 -13 -15 -13 -5 0 -2 11 7 25 9 14 17 25 19 25 1 0 2 -16 3 -35z"/>
<path d="M5267 826 c-102 -30 -198 -114 -246 -215 -26 -56 -26 -57 -29 -334
l-3 -277 396 0 c334 0 395 2 395 14 0 8 -5 16 -12 18 -8 3 -7 14 5 38 24 47
25 405 2 485 -32 108 -132 213 -245 256 -69 27 -197 34 -263 15z m481 -774 c2
-7 -6 -12 -17 -12 -21 0 -27 11 -14 24 9 9 26 2 31 -12z"/>
<path d="M8716 765 c-4 -14 -13 -25 -21 -25 -8 0 -15 -4 -15 -9 0 -5 10 -8 23
-7 19 1 23 7 24 33 1 39 -3 42 -11 8z"/>
<path d="M8620 750 c0 -18 3 -19 21 -9 17 9 19 13 8 20 -22 14 -29 11 -29 -11z"/>
<path d="M323 733 c-21 -4 -23 -10 -23 -59 0 -48 2 -54 24 -60 l25 -6 -20 -31
c-20 -33 -26 -92 -10 -101 5 -4 16 -3 25 0 13 5 16 26 16 135 0 71 -3 128 -7
128 -5 -1 -18 -4 -30 -6z"/>
<path d="M380 540 c0 -18 4 -29 10 -25 6 3 10 15 10 25 0 10 -4 22 -10 25 -6
4 -10 -7 -10 -25z"/>
<path d="M8561 494 c0 -11 3 -14 6 -6 3 7 2 16 -1 19 -3 4 -6 -2 -5 -13z"/>
<path d="M308 433 c-2 -9 -1 -36 1 -60 3 -39 5 -43 30 -42 14 0 20 3 14 6 -15
6 -18 83 -3 83 6 0 10 7 10 15 0 21 -48 20 -52 -2z"/>
<path d="M380 394 c0 -27 4 -43 10 -39 6 3 10 24 10 46 0 21 -4 39 -10 39 -5
0 -10 -21 -10 -46z"/>
<path d="M6524 424 c3 -9 6 -18 6 -22 0 -3 6 3 14 14 12 15 17 17 27 7 17 -17
29 -16 29 2 0 11 -11 15 -41 15 -33 0 -40 -3 -35 -16z"/>
<path d="M317 303 c-10 -9 -8 -86 2 -102 5 -8 16 -11 26 -7 14 5 16 14 11 44
-13 70 -21 84 -39 65z"/>
<path d="M392 260 c0 -14 2 -19 5 -12 2 6 2 18 0 25 -3 6 -5 1 -5 -13z"/>
<path d="M346 125 c8 -51 12 -55 30 -31 18 25 18 36 -1 36 -7 0 -19 8 -25 18
-8 13 -9 8 -4 -23z"/>
<path d="M471 131 c-16 -10 -8 -39 20 -75 l20 -26 26 30 c15 19 23 37 19 47
-5 12 -9 14 -18 5 -18 -18 -38 -14 -46 8 -5 13 -12 16 -21 11z"/>
<path d="M2130 79 c0 -27 13 -36 42 -30 47 10 46 28 -2 33 -22 2 -40 0 -40 -3z"/>
<path d="M2398 84 c21 -10 13 -24 -12 -24 -14 0 -28 -5 -31 -10 -9 -15 39 -7
59 9 14 12 16 11 16 -5 0 -14 3 -15 12 -6 15 15 3 27 -32 36 -14 3 -19 3 -12
0z"/>
<path d="M260 31 c0 -17 5 -31 10 -31 6 0 10 11 10 24 0 14 -4 28 -10 31 -6 4
-10 -7 -10 -24z"/>
<path d="M550 43 c0 -6 -3 -18 -6 -27 -4 -11 -1 -16 10 -16 9 0 16 6 16 13 0
16 -20 46 -20 30z"/>
<path d="M4857 24 c-3 -19 -1 -24 10 -20 8 3 17 6 19 6 2 0 4 9 4 20 0 29 -27
25 -33 -6z"/>
<path d="M836 24 c-9 -22 -8 -24 9 -24 8 0 15 6 15 14 0 22 -17 28 -24 10z"/>
<path d="M1120 20 c0 -11 5 -20 10 -20 6 0 10 9 10 20 0 11 -4 20 -10 20 -5 0
-10 -9 -10 -20z"/>
<path d="M1977 20 c-4 -15 0 -20 13 -20 13 0 17 5 13 20 -7 26 -19 26 -26 0z"/>
<path d="M1696 15 c-3 -8 -1 -15 4 -15 6 0 10 7 10 15 0 19 -6 19 -14 0z"/>
<path d="M45 10 c-3 -5 -1 -10 4 -10 6 0 11 5 11 10 0 6 -2 10 -4 10 -3 0 -8
-4 -11 -10z"/>
<path d="M765 10 c-3 -5 -1 -10 4 -10 6 0 11 5 11 10 0 6 -2 10 -4 10 -3 0 -8
-4 -11 -10z"/>
<path d="M910 10 c0 -5 5 -10 11 -10 5 0 7 5 4 10 -3 6 -8 10 -11 10 -2 0 -4
-4 -4 -10z"/>
<path d="M985 10 c-3 -5 -1 -10 4 -10 6 0 11 5 11 10 0 6 -2 10 -4 10 -3 0 -8
-4 -11 -10z"/>
<path d="M1050 10 c0 -5 5 -10 10 -10 6 0 10 5 10 10 0 6 -4 10 -10 10 -5 0
-10 -4 -10 -10z"/>
<path d="M3480 10 c0 -5 7 -10 16 -10 8 0 12 5 9 10 -3 6 -10 10 -16 10 -5 0
-9 -4 -9 -10z"/>
</g>
</svg>
